%TF.GenerationSoftware,KiCad,Pcbnew,(5.1.12)-1*%
%TF.CreationDate,2022-01-31T19:51:58-07:00*%
%TF.ProjectId,Annoyatron_v2,416e6e6f-7961-4747-926f-6e5f76322e6b,rev?*%
%TF.SameCoordinates,Original*%
%TF.FileFunction,Legend,Top*%
%TF.FilePolarity,Positive*%
%FSLAX46Y46*%
G04 Gerber Fmt 4.6, Leading zero omitted, Abs format (unit mm)*
G04 Created by KiCad (PCBNEW (5.1.12)-1) date 2022-01-31 19:51:58*
%MOMM*%
%LPD*%
G01*
G04 APERTURE LIST*
%ADD10C,0.150000*%
%ADD11C,0.120000*%
%ADD12C,0.010000*%
%ADD13C,0.127000*%
%ADD14C,0.200000*%
%ADD15C,0.080000*%
G04 APERTURE END LIST*
D10*
X105117047Y-121070666D02*
X105593238Y-121070666D01*
X105021809Y-121356380D02*
X105355142Y-120356380D01*
X105688476Y-121356380D01*
X106021809Y-120689714D02*
X106021809Y-121356380D01*
X106021809Y-120784952D02*
X106069428Y-120737333D01*
X106164666Y-120689714D01*
X106307523Y-120689714D01*
X106402761Y-120737333D01*
X106450380Y-120832571D01*
X106450380Y-121356380D01*
X106926571Y-120689714D02*
X106926571Y-121356380D01*
X106926571Y-120784952D02*
X106974190Y-120737333D01*
X107069428Y-120689714D01*
X107212285Y-120689714D01*
X107307523Y-120737333D01*
X107355142Y-120832571D01*
X107355142Y-121356380D01*
X107974190Y-121356380D02*
X107878952Y-121308761D01*
X107831333Y-121261142D01*
X107783714Y-121165904D01*
X107783714Y-120880190D01*
X107831333Y-120784952D01*
X107878952Y-120737333D01*
X107974190Y-120689714D01*
X108117047Y-120689714D01*
X108212285Y-120737333D01*
X108259904Y-120784952D01*
X108307523Y-120880190D01*
X108307523Y-121165904D01*
X108259904Y-121261142D01*
X108212285Y-121308761D01*
X108117047Y-121356380D01*
X107974190Y-121356380D01*
X108640857Y-120689714D02*
X108878952Y-121356380D01*
X109117047Y-120689714D02*
X108878952Y-121356380D01*
X108783714Y-121594476D01*
X108736095Y-121642095D01*
X108640857Y-121689714D01*
X109926571Y-121356380D02*
X109926571Y-120832571D01*
X109878952Y-120737333D01*
X109783714Y-120689714D01*
X109593238Y-120689714D01*
X109498000Y-120737333D01*
X109926571Y-121308761D02*
X109831333Y-121356380D01*
X109593238Y-121356380D01*
X109498000Y-121308761D01*
X109450380Y-121213523D01*
X109450380Y-121118285D01*
X109498000Y-121023047D01*
X109593238Y-120975428D01*
X109831333Y-120975428D01*
X109926571Y-120927809D01*
X110259904Y-120689714D02*
X110640857Y-120689714D01*
X110402761Y-120356380D02*
X110402761Y-121213523D01*
X110450380Y-121308761D01*
X110545619Y-121356380D01*
X110640857Y-121356380D01*
X110974190Y-121356380D02*
X110974190Y-120689714D01*
X110974190Y-120880190D02*
X111021809Y-120784952D01*
X111069428Y-120737333D01*
X111164666Y-120689714D01*
X111259904Y-120689714D01*
X111736095Y-121356380D02*
X111640857Y-121308761D01*
X111593238Y-121261142D01*
X111545619Y-121165904D01*
X111545619Y-120880190D01*
X111593238Y-120784952D01*
X111640857Y-120737333D01*
X111736095Y-120689714D01*
X111878952Y-120689714D01*
X111974190Y-120737333D01*
X112021809Y-120784952D01*
X112069428Y-120880190D01*
X112069428Y-121165904D01*
X112021809Y-121261142D01*
X111974190Y-121308761D01*
X111878952Y-121356380D01*
X111736095Y-121356380D01*
X112498000Y-120689714D02*
X112498000Y-121356380D01*
X112498000Y-120784952D02*
X112545619Y-120737333D01*
X112640857Y-120689714D01*
X112783714Y-120689714D01*
X112878952Y-120737333D01*
X112926571Y-120832571D01*
X112926571Y-121356380D01*
X114069428Y-120689714D02*
X114307523Y-121356380D01*
X114545619Y-120689714D01*
X114878952Y-120451619D02*
X114926571Y-120404000D01*
X115021809Y-120356380D01*
X115259904Y-120356380D01*
X115355142Y-120404000D01*
X115402761Y-120451619D01*
X115450380Y-120546857D01*
X115450380Y-120642095D01*
X115402761Y-120784952D01*
X114831333Y-121356380D01*
X115450380Y-121356380D01*
X115878952Y-121261142D02*
X115926571Y-121308761D01*
X115878952Y-121356380D01*
X115831333Y-121308761D01*
X115878952Y-121261142D01*
X115878952Y-121356380D01*
X116545619Y-120356380D02*
X116640857Y-120356380D01*
X116736095Y-120404000D01*
X116783714Y-120451619D01*
X116831333Y-120546857D01*
X116878952Y-120737333D01*
X116878952Y-120975428D01*
X116831333Y-121165904D01*
X116783714Y-121261142D01*
X116736095Y-121308761D01*
X116640857Y-121356380D01*
X116545619Y-121356380D01*
X116450380Y-121308761D01*
X116402761Y-121261142D01*
X116355142Y-121165904D01*
X116307523Y-120975428D01*
X116307523Y-120737333D01*
X116355142Y-120546857D01*
X116402761Y-120451619D01*
X116450380Y-120404000D01*
X116545619Y-120356380D01*
D11*
%TO.C,R1*%
X102489000Y-77533500D02*
G75*
G03*
X102489000Y-77533500I-127000J0D01*
G01*
X100025200Y-78676500D02*
X109804200Y-78676500D01*
X100025200Y-88455500D02*
X100025200Y-78676500D01*
X109804200Y-88455500D02*
X100025200Y-88455500D01*
X109804200Y-78676500D02*
X109804200Y-88455500D01*
D10*
%TO.C,TP_5V0*%
X151708000Y-100652000D02*
X151708000Y-96452000D01*
X151708000Y-96452000D02*
X154108000Y-96452000D01*
X154108000Y-96452000D02*
X154108000Y-100652000D01*
X154108000Y-100652000D02*
X151708000Y-100652000D01*
%TO.C,TP_GND0*%
X120836000Y-116910000D02*
X125036000Y-116910000D01*
X125036000Y-116910000D02*
X125036000Y-119310000D01*
X125036000Y-119310000D02*
X120836000Y-119310000D01*
X120836000Y-119310000D02*
X120836000Y-116910000D01*
%TO.C,TP_3V3*%
X120836000Y-111576000D02*
X125036000Y-111576000D01*
X125036000Y-111576000D02*
X125036000Y-113976000D01*
X125036000Y-113976000D02*
X120836000Y-113976000D01*
X120836000Y-113976000D02*
X120836000Y-111576000D01*
D11*
%TO.C,U6*%
X105156000Y-71368600D02*
X107106000Y-71368600D01*
X105156000Y-71368600D02*
X103206000Y-71368600D01*
X105156000Y-66248600D02*
X107106000Y-66248600D01*
X105156000Y-66248600D02*
X101706000Y-66248600D01*
%TO.C,R5*%
X144509258Y-103900500D02*
X144034742Y-103900500D01*
X144509258Y-102855500D02*
X144034742Y-102855500D01*
%TO.C,R3*%
X139208742Y-102093500D02*
X139683258Y-102093500D01*
X139208742Y-103138500D02*
X139683258Y-103138500D01*
%TO.C,R2*%
X132063258Y-103138500D02*
X131588742Y-103138500D01*
X132063258Y-102093500D02*
X131588742Y-102093500D01*
%TO.C,R12*%
X153176500Y-111268742D02*
X153176500Y-111743258D01*
X152131500Y-111268742D02*
X152131500Y-111743258D01*
%TO.C,R10*%
X146795258Y-114314500D02*
X146320742Y-114314500D01*
X146795258Y-113269500D02*
X146320742Y-113269500D01*
%TO.C,LED_5V0*%
X144056000Y-113057000D02*
X141771000Y-113057000D01*
X141771000Y-113057000D02*
X141771000Y-114527000D01*
X141771000Y-114527000D02*
X144056000Y-114527000D01*
%TO.C,C8*%
X168648748Y-105437000D02*
X169171252Y-105437000D01*
X168648748Y-106907000D02*
X169171252Y-106907000D01*
%TO.C,C6*%
X156725252Y-108177000D02*
X156202748Y-108177000D01*
X156725252Y-106707000D02*
X156202748Y-106707000D01*
%TO.C,5V0*%
X171089000Y-113413000D02*
X171089000Y-111913000D01*
X171089000Y-111913000D02*
X170819000Y-111913000D01*
X170819000Y-111913000D02*
X170819000Y-109083000D01*
X164189000Y-113413000D02*
X164189000Y-111913000D01*
X164189000Y-111913000D02*
X164459000Y-111913000D01*
X164459000Y-111913000D02*
X164459000Y-110813000D01*
%TO.C,R13*%
X108728742Y-75423500D02*
X109203258Y-75423500D01*
X108728742Y-76468500D02*
X109203258Y-76468500D01*
%TO.C,C11*%
X105804580Y-76456000D02*
X105523420Y-76456000D01*
X105804580Y-75436000D02*
X105523420Y-75436000D01*
%TO.C,R11*%
X149622742Y-117333500D02*
X150097258Y-117333500D01*
X149622742Y-118378500D02*
X150097258Y-118378500D01*
%TO.C,FB2*%
X111513252Y-67283000D02*
X110990748Y-67283000D01*
X111513252Y-65813000D02*
X110990748Y-65813000D01*
%TO.C,FB1*%
X111513252Y-71347000D02*
X110990748Y-71347000D01*
X111513252Y-69877000D02*
X110990748Y-69877000D01*
%TO.C,C10*%
X111504000Y-63894580D02*
X111504000Y-63613420D01*
X112524000Y-63894580D02*
X112524000Y-63613420D01*
%TO.C,C9*%
X112889420Y-72134000D02*
X113170580Y-72134000D01*
X112889420Y-73154000D02*
X113170580Y-73154000D01*
%TO.C,DISPLAY1*%
X133604000Y-64830000D02*
X133604000Y-62170000D01*
X133604000Y-64830000D02*
X141284000Y-64830000D01*
X141284000Y-64830000D02*
X141284000Y-62170000D01*
X133604000Y-62170000D02*
X141284000Y-62170000D01*
X131004000Y-62170000D02*
X132334000Y-62170000D01*
X131004000Y-63500000D02*
X131004000Y-62170000D01*
X111125000Y-61468000D02*
X161163000Y-61442600D01*
X161163000Y-61468000D02*
X161163000Y-88138000D01*
X111125000Y-61468000D02*
X111125000Y-88138000D01*
X111125000Y-88138000D02*
X161163000Y-88138000D01*
%TO.C,R9*%
X146795258Y-116092500D02*
X146320742Y-116092500D01*
X146795258Y-115047500D02*
X146320742Y-115047500D01*
%TO.C,LED_3V3*%
X144081500Y-114835000D02*
X141796500Y-114835000D01*
X141796500Y-114835000D02*
X141796500Y-116305000D01*
X141796500Y-116305000D02*
X144081500Y-116305000D01*
%TO.C,R8*%
X99553500Y-68055258D02*
X99553500Y-67580742D01*
X100598500Y-68055258D02*
X100598500Y-67580742D01*
%TO.C,R7*%
X143526742Y-96251500D02*
X144001258Y-96251500D01*
X143526742Y-97296500D02*
X144001258Y-97296500D01*
%TO.C,R4*%
X137653500Y-110981258D02*
X137653500Y-110506742D01*
X138698500Y-110981258D02*
X138698500Y-110506742D01*
%TO.C,LED_USR1*%
X146266000Y-97509000D02*
X148551000Y-97509000D01*
X148551000Y-97509000D02*
X148551000Y-96039000D01*
X148551000Y-96039000D02*
X146266000Y-96039000D01*
%TO.C,C4*%
X170426748Y-98833000D02*
X170949252Y-98833000D01*
X170426748Y-100303000D02*
X170949252Y-100303000D01*
%TO.C,C3*%
X128526000Y-88251420D02*
X128526000Y-88532580D01*
X127506000Y-88251420D02*
X127506000Y-88532580D01*
%TO.C,C2*%
X105412000Y-73011420D02*
X105412000Y-73292580D01*
X104392000Y-73011420D02*
X104392000Y-73292580D01*
%TO.C,C1*%
X103634000Y-73011420D02*
X103634000Y-73292580D01*
X102614000Y-73011420D02*
X102614000Y-73292580D01*
%TO.C,C7*%
X153697000Y-117101252D02*
X153697000Y-116578748D01*
X155167000Y-117101252D02*
X155167000Y-116578748D01*
%TO.C,C5*%
X164599252Y-108177000D02*
X164076748Y-108177000D01*
X164599252Y-106707000D02*
X164076748Y-106707000D01*
%TO.C,WIRE_SINK1*%
X163770000Y-96012000D02*
X166430000Y-96012000D01*
X163770000Y-96012000D02*
X163770000Y-103692000D01*
X163770000Y-103692000D02*
X166430000Y-103692000D01*
X166430000Y-96012000D02*
X166430000Y-103692000D01*
X166430000Y-93412000D02*
X166430000Y-94742000D01*
X165100000Y-93412000D02*
X166430000Y-93412000D01*
%TO.C,WIRE_SRC1*%
X104588000Y-96012000D02*
X107248000Y-96012000D01*
X104588000Y-96012000D02*
X104588000Y-103692000D01*
X104588000Y-103692000D02*
X107248000Y-103692000D01*
X107248000Y-96012000D02*
X107248000Y-103692000D01*
X107248000Y-93412000D02*
X107248000Y-94742000D01*
X105918000Y-93412000D02*
X107248000Y-93412000D01*
%TO.C,PIR1*%
X128291999Y-115316000D02*
X129561999Y-115316000D01*
X128926999Y-114681000D02*
X128926999Y-115951000D01*
X139043001Y-116586000D02*
G75*
G03*
X139043001Y-116586000I-4677001J0D01*
G01*
%TO.C,U3*%
X135636000Y-101506000D02*
X139496000Y-101506000D01*
X139496000Y-101506000D02*
X139496000Y-101271000D01*
X135636000Y-101506000D02*
X131776000Y-101506000D01*
X131776000Y-101506000D02*
X131776000Y-101271000D01*
X135636000Y-88486000D02*
X139496000Y-88486000D01*
X139496000Y-88486000D02*
X139496000Y-88721000D01*
X135636000Y-88486000D02*
X131776000Y-88486000D01*
X131776000Y-88486000D02*
X131776000Y-88721000D01*
X131776000Y-88721000D02*
X129961000Y-88721000D01*
D12*
%TO.C,G1*%
G36*
X110632195Y-117147584D02*
G01*
X110787090Y-117151150D01*
X111195624Y-118064578D01*
X111259980Y-118208362D01*
X111321498Y-118345605D01*
X111379371Y-118474512D01*
X111432789Y-118593292D01*
X111480943Y-118700152D01*
X111523025Y-118793301D01*
X111558225Y-118870945D01*
X111585734Y-118931293D01*
X111604744Y-118972551D01*
X111614446Y-118992929D01*
X111615404Y-118994678D01*
X111622271Y-118987910D01*
X111638058Y-118960149D01*
X111662894Y-118911115D01*
X111696913Y-118840526D01*
X111740244Y-118748104D01*
X111793018Y-118633566D01*
X111855368Y-118496632D01*
X111927423Y-118337021D01*
X112009315Y-118154454D01*
X112042036Y-118081250D01*
X112457422Y-117151150D01*
X112604011Y-117147571D01*
X112666452Y-117147035D01*
X112714134Y-117148626D01*
X112743243Y-117152125D01*
X112750600Y-117156020D01*
X112745537Y-117168981D01*
X112730885Y-117203318D01*
X112707447Y-117257229D01*
X112676025Y-117328915D01*
X112637423Y-117416574D01*
X112592443Y-117518404D01*
X112541888Y-117632606D01*
X112486562Y-117757378D01*
X112427266Y-117890918D01*
X112364805Y-118031428D01*
X112299981Y-118177104D01*
X112233597Y-118326147D01*
X112166455Y-118476755D01*
X112099360Y-118627128D01*
X112033113Y-118775464D01*
X111968518Y-118919963D01*
X111906378Y-119058824D01*
X111847495Y-119190245D01*
X111792673Y-119312426D01*
X111742714Y-119423566D01*
X111698422Y-119521864D01*
X111660599Y-119605518D01*
X111630048Y-119672729D01*
X111607573Y-119721695D01*
X111593976Y-119750615D01*
X111592275Y-119754069D01*
X111514816Y-119886840D01*
X111426642Y-119997750D01*
X111328340Y-120086233D01*
X111220494Y-120151724D01*
X111151800Y-120179628D01*
X111087904Y-120194570D01*
X111006796Y-120203868D01*
X110916016Y-120207567D01*
X110823108Y-120205709D01*
X110735612Y-120198339D01*
X110661072Y-120185500D01*
X110629700Y-120176597D01*
X110519802Y-120129653D01*
X110421549Y-120069356D01*
X110395725Y-120049384D01*
X110358601Y-120018963D01*
X110426016Y-119909031D01*
X110455079Y-119863030D01*
X110479789Y-119826486D01*
X110496937Y-119804005D01*
X110502669Y-119799100D01*
X110517114Y-119806450D01*
X110543691Y-119825194D01*
X110561278Y-119838921D01*
X110629706Y-119887110D01*
X110699085Y-119919750D01*
X110776868Y-119939388D01*
X110870506Y-119948572D01*
X110883700Y-119949112D01*
X110943960Y-119950920D01*
X110986282Y-119950334D01*
X111018103Y-119946046D01*
X111046859Y-119936749D01*
X111079989Y-119921136D01*
X111099185Y-119911246D01*
X111154499Y-119877534D01*
X111204570Y-119835338D01*
X111251482Y-119781739D01*
X111297317Y-119713820D01*
X111344159Y-119628664D01*
X111394091Y-119523354D01*
X111422427Y-119458589D01*
X111465617Y-119357681D01*
X111353845Y-119118015D01*
X111326725Y-119059387D01*
X111292360Y-118984329D01*
X111251664Y-118894890D01*
X111205554Y-118793117D01*
X111154943Y-118681058D01*
X111100747Y-118560760D01*
X111043880Y-118434270D01*
X110985258Y-118303638D01*
X110925794Y-118170909D01*
X110866405Y-118038133D01*
X110808005Y-117907355D01*
X110751509Y-117780625D01*
X110697832Y-117659989D01*
X110647888Y-117547496D01*
X110602593Y-117445192D01*
X110562862Y-117355126D01*
X110529609Y-117279345D01*
X110503749Y-117219897D01*
X110486197Y-117178830D01*
X110477868Y-117158190D01*
X110477300Y-117156207D01*
X110489424Y-117151298D01*
X110523591Y-117148155D01*
X110576495Y-117146962D01*
X110632195Y-117147584D01*
G37*
X110632195Y-117147584D02*
X110787090Y-117151150D01*
X111195624Y-118064578D01*
X111259980Y-118208362D01*
X111321498Y-118345605D01*
X111379371Y-118474512D01*
X111432789Y-118593292D01*
X111480943Y-118700152D01*
X111523025Y-118793301D01*
X111558225Y-118870945D01*
X111585734Y-118931293D01*
X111604744Y-118972551D01*
X111614446Y-118992929D01*
X111615404Y-118994678D01*
X111622271Y-118987910D01*
X111638058Y-118960149D01*
X111662894Y-118911115D01*
X111696913Y-118840526D01*
X111740244Y-118748104D01*
X111793018Y-118633566D01*
X111855368Y-118496632D01*
X111927423Y-118337021D01*
X112009315Y-118154454D01*
X112042036Y-118081250D01*
X112457422Y-117151150D01*
X112604011Y-117147571D01*
X112666452Y-117147035D01*
X112714134Y-117148626D01*
X112743243Y-117152125D01*
X112750600Y-117156020D01*
X112745537Y-117168981D01*
X112730885Y-117203318D01*
X112707447Y-117257229D01*
X112676025Y-117328915D01*
X112637423Y-117416574D01*
X112592443Y-117518404D01*
X112541888Y-117632606D01*
X112486562Y-117757378D01*
X112427266Y-117890918D01*
X112364805Y-118031428D01*
X112299981Y-118177104D01*
X112233597Y-118326147D01*
X112166455Y-118476755D01*
X112099360Y-118627128D01*
X112033113Y-118775464D01*
X111968518Y-118919963D01*
X111906378Y-119058824D01*
X111847495Y-119190245D01*
X111792673Y-119312426D01*
X111742714Y-119423566D01*
X111698422Y-119521864D01*
X111660599Y-119605518D01*
X111630048Y-119672729D01*
X111607573Y-119721695D01*
X111593976Y-119750615D01*
X111592275Y-119754069D01*
X111514816Y-119886840D01*
X111426642Y-119997750D01*
X111328340Y-120086233D01*
X111220494Y-120151724D01*
X111151800Y-120179628D01*
X111087904Y-120194570D01*
X111006796Y-120203868D01*
X110916016Y-120207567D01*
X110823108Y-120205709D01*
X110735612Y-120198339D01*
X110661072Y-120185500D01*
X110629700Y-120176597D01*
X110519802Y-120129653D01*
X110421549Y-120069356D01*
X110395725Y-120049384D01*
X110358601Y-120018963D01*
X110426016Y-119909031D01*
X110455079Y-119863030D01*
X110479789Y-119826486D01*
X110496937Y-119804005D01*
X110502669Y-119799100D01*
X110517114Y-119806450D01*
X110543691Y-119825194D01*
X110561278Y-119838921D01*
X110629706Y-119887110D01*
X110699085Y-119919750D01*
X110776868Y-119939388D01*
X110870506Y-119948572D01*
X110883700Y-119949112D01*
X110943960Y-119950920D01*
X110986282Y-119950334D01*
X111018103Y-119946046D01*
X111046859Y-119936749D01*
X111079989Y-119921136D01*
X111099185Y-119911246D01*
X111154499Y-119877534D01*
X111204570Y-119835338D01*
X111251482Y-119781739D01*
X111297317Y-119713820D01*
X111344159Y-119628664D01*
X111394091Y-119523354D01*
X111422427Y-119458589D01*
X111465617Y-119357681D01*
X111353845Y-119118015D01*
X111326725Y-119059387D01*
X111292360Y-118984329D01*
X111251664Y-118894890D01*
X111205554Y-118793117D01*
X111154943Y-118681058D01*
X111100747Y-118560760D01*
X111043880Y-118434270D01*
X110985258Y-118303638D01*
X110925794Y-118170909D01*
X110866405Y-118038133D01*
X110808005Y-117907355D01*
X110751509Y-117780625D01*
X110697832Y-117659989D01*
X110647888Y-117547496D01*
X110602593Y-117445192D01*
X110562862Y-117355126D01*
X110529609Y-117279345D01*
X110503749Y-117219897D01*
X110486197Y-117178830D01*
X110477868Y-117158190D01*
X110477300Y-117156207D01*
X110489424Y-117151298D01*
X110523591Y-117148155D01*
X110576495Y-117146962D01*
X110632195Y-117147584D01*
G36*
X106311700Y-119062500D02*
G01*
X111095706Y-119062500D01*
X111164328Y-119210245D01*
X111190522Y-119266784D01*
X111212796Y-119315124D01*
X111228974Y-119350525D01*
X111236880Y-119368247D01*
X111237183Y-119368995D01*
X111225100Y-119370105D01*
X111188720Y-119371180D01*
X111129145Y-119372216D01*
X111047480Y-119373208D01*
X110944827Y-119374151D01*
X110822288Y-119375040D01*
X110680968Y-119375872D01*
X110521968Y-119376641D01*
X110346392Y-119377343D01*
X110155342Y-119377974D01*
X109949922Y-119378527D01*
X109731235Y-119379000D01*
X109500384Y-119379387D01*
X109258471Y-119379684D01*
X109006600Y-119379885D01*
X108745873Y-119379987D01*
X108617808Y-119380000D01*
X105994200Y-119380000D01*
X105994200Y-116420900D01*
X106311700Y-116420900D01*
X106311700Y-119062500D01*
G37*
X106311700Y-119062500D02*
X111095706Y-119062500D01*
X111164328Y-119210245D01*
X111190522Y-119266784D01*
X111212796Y-119315124D01*
X111228974Y-119350525D01*
X111236880Y-119368247D01*
X111237183Y-119368995D01*
X111225100Y-119370105D01*
X111188720Y-119371180D01*
X111129145Y-119372216D01*
X111047480Y-119373208D01*
X110944827Y-119374151D01*
X110822288Y-119375040D01*
X110680968Y-119375872D01*
X110521968Y-119376641D01*
X110346392Y-119377343D01*
X110155342Y-119377974D01*
X109949922Y-119378527D01*
X109731235Y-119379000D01*
X109500384Y-119379387D01*
X109258471Y-119379684D01*
X109006600Y-119379885D01*
X108745873Y-119379987D01*
X108617808Y-119380000D01*
X105994200Y-119380000D01*
X105994200Y-116420900D01*
X106311700Y-116420900D01*
X106311700Y-119062500D01*
G36*
X116916200Y-117424200D02*
G01*
X116779675Y-117424643D01*
X116620720Y-117433617D01*
X116480285Y-117459693D01*
X116357777Y-117503241D01*
X116252605Y-117564631D01*
X116164177Y-117644233D01*
X116091901Y-117742418D01*
X116035186Y-117859556D01*
X116020760Y-117899513D01*
X116008449Y-117939499D01*
X115998011Y-117981821D01*
X115989298Y-118028846D01*
X115982162Y-118082944D01*
X115976457Y-118146482D01*
X115972035Y-118221828D01*
X115968748Y-118311350D01*
X115966451Y-118417416D01*
X115964994Y-118542395D01*
X115964231Y-118688653D01*
X115964027Y-118811675D01*
X115963700Y-119380000D01*
X113976150Y-119380000D01*
X113753578Y-119379967D01*
X113538010Y-119379871D01*
X113330805Y-119379716D01*
X113133322Y-119379505D01*
X112946920Y-119379241D01*
X112772958Y-119378929D01*
X112612795Y-119378571D01*
X112467791Y-119378172D01*
X112339304Y-119377734D01*
X112228694Y-119377262D01*
X112137320Y-119376760D01*
X112066541Y-119376229D01*
X112017716Y-119375675D01*
X111992204Y-119375101D01*
X111988600Y-119374786D01*
X111993628Y-119361960D01*
X112007383Y-119330573D01*
X112027872Y-119285088D01*
X112053100Y-119229970D01*
X112058065Y-119219211D01*
X112127530Y-119068850D01*
X113893134Y-119065630D01*
X115658739Y-119062411D01*
X115661994Y-118106780D01*
X115665250Y-117151150D01*
X115951000Y-117143968D01*
X115951000Y-117578727D01*
X116014790Y-117483353D01*
X116076166Y-117401910D01*
X116143776Y-117333720D01*
X116220368Y-117277571D01*
X116308688Y-117232252D01*
X116411485Y-117196549D01*
X116531504Y-117169252D01*
X116671493Y-117149148D01*
X116798725Y-117137502D01*
X116916200Y-117128823D01*
X116916200Y-117424200D01*
G37*
X116916200Y-117424200D02*
X116779675Y-117424643D01*
X116620720Y-117433617D01*
X116480285Y-117459693D01*
X116357777Y-117503241D01*
X116252605Y-117564631D01*
X116164177Y-117644233D01*
X116091901Y-117742418D01*
X116035186Y-117859556D01*
X116020760Y-117899513D01*
X116008449Y-117939499D01*
X115998011Y-117981821D01*
X115989298Y-118028846D01*
X115982162Y-118082944D01*
X115976457Y-118146482D01*
X115972035Y-118221828D01*
X115968748Y-118311350D01*
X115966451Y-118417416D01*
X115964994Y-118542395D01*
X115964231Y-118688653D01*
X115964027Y-118811675D01*
X115963700Y-119380000D01*
X113976150Y-119380000D01*
X113753578Y-119379967D01*
X113538010Y-119379871D01*
X113330805Y-119379716D01*
X113133322Y-119379505D01*
X112946920Y-119379241D01*
X112772958Y-119378929D01*
X112612795Y-119378571D01*
X112467791Y-119378172D01*
X112339304Y-119377734D01*
X112228694Y-119377262D01*
X112137320Y-119376760D01*
X112066541Y-119376229D01*
X112017716Y-119375675D01*
X111992204Y-119375101D01*
X111988600Y-119374786D01*
X111993628Y-119361960D01*
X112007383Y-119330573D01*
X112027872Y-119285088D01*
X112053100Y-119229970D01*
X112058065Y-119219211D01*
X112127530Y-119068850D01*
X113893134Y-119065630D01*
X115658739Y-119062411D01*
X115661994Y-118106780D01*
X115665250Y-117151150D01*
X115951000Y-117143968D01*
X115951000Y-117578727D01*
X116014790Y-117483353D01*
X116076166Y-117401910D01*
X116143776Y-117333720D01*
X116220368Y-117277571D01*
X116308688Y-117232252D01*
X116411485Y-117196549D01*
X116531504Y-117169252D01*
X116671493Y-117149148D01*
X116798725Y-117137502D01*
X116916200Y-117128823D01*
X116916200Y-117424200D01*
G36*
X109348706Y-117141144D02*
G01*
X109500139Y-117162604D01*
X109505750Y-117163768D01*
X109628719Y-117200848D01*
X109743934Y-117257422D01*
X109847561Y-117330622D01*
X109935768Y-117417579D01*
X110004722Y-117515424D01*
X110023356Y-117551200D01*
X110044362Y-117596811D01*
X110061878Y-117639311D01*
X110076221Y-117681520D01*
X110087709Y-117726258D01*
X110096659Y-117776345D01*
X110103388Y-117834601D01*
X110108215Y-117903847D01*
X110111457Y-117986903D01*
X110113430Y-118086590D01*
X110114454Y-118205727D01*
X110114845Y-118347135D01*
X110114863Y-118364000D01*
X110115350Y-118878350D01*
X109921675Y-118881855D01*
X109835876Y-118882542D01*
X109774896Y-118881056D01*
X109738903Y-118877404D01*
X109728000Y-118872078D01*
X109734188Y-118853803D01*
X109749720Y-118823773D01*
X109757024Y-118811422D01*
X109780572Y-118770979D01*
X109797016Y-118735431D01*
X109807612Y-118698699D01*
X109813620Y-118654709D01*
X109816296Y-118597382D01*
X109816900Y-118522152D01*
X109816900Y-118351300D01*
X109394625Y-118351520D01*
X109261635Y-118351917D01*
X109151085Y-118353160D01*
X109060020Y-118355554D01*
X108985487Y-118359407D01*
X108924531Y-118365024D01*
X108874196Y-118372710D01*
X108831530Y-118382772D01*
X108793578Y-118395516D01*
X108757385Y-118411248D01*
X108741279Y-118419184D01*
X108663806Y-118471848D01*
X108604821Y-118540401D01*
X108566077Y-118621629D01*
X108549323Y-118712316D01*
X108550513Y-118769487D01*
X108555834Y-118813068D01*
X108562235Y-118848642D01*
X108566131Y-118862475D01*
X108567965Y-118871813D01*
X108562035Y-118878105D01*
X108544459Y-118881942D01*
X108511355Y-118883920D01*
X108458840Y-118884632D01*
X108420860Y-118884700D01*
X108349778Y-118883863D01*
X108301379Y-118881176D01*
X108272995Y-118876373D01*
X108261959Y-118869186D01*
X108261834Y-118868825D01*
X108249408Y-118797152D01*
X108249745Y-118712307D01*
X108261901Y-118622502D01*
X108284931Y-118535949D01*
X108306149Y-118483499D01*
X108367423Y-118383993D01*
X108448951Y-118299815D01*
X108550733Y-118230965D01*
X108672768Y-118177443D01*
X108735084Y-118158141D01*
X108761942Y-118151202D01*
X108789061Y-118145505D01*
X108819334Y-118140892D01*
X108855649Y-118137203D01*
X108900898Y-118134281D01*
X108957972Y-118131967D01*
X109029761Y-118130101D01*
X109119156Y-118128526D01*
X109229048Y-118127082D01*
X109319183Y-118126070D01*
X109445368Y-118124591D01*
X109548424Y-118123068D01*
X109630623Y-118121391D01*
X109694235Y-118119448D01*
X109741531Y-118117130D01*
X109774782Y-118114326D01*
X109796259Y-118110925D01*
X109808234Y-118106819D01*
X109812913Y-118102071D01*
X109816017Y-118076304D01*
X109814833Y-118031763D01*
X109810122Y-117974567D01*
X109802649Y-117910835D01*
X109793176Y-117846685D01*
X109782467Y-117788236D01*
X109771283Y-117741607D01*
X109765899Y-117725029D01*
X109719522Y-117636585D01*
X109651683Y-117558878D01*
X109564786Y-117493949D01*
X109461234Y-117443838D01*
X109416850Y-117428750D01*
X109357702Y-117416511D01*
X109280930Y-117408823D01*
X109193902Y-117405693D01*
X109103984Y-117407132D01*
X109018543Y-117413147D01*
X108944947Y-117423748D01*
X108924886Y-117428162D01*
X108779979Y-117472756D01*
X108643260Y-117532378D01*
X108542319Y-117590566D01*
X108498339Y-117617716D01*
X108462152Y-117636850D01*
X108438885Y-117645416D01*
X108433473Y-117644721D01*
X108422970Y-117629453D01*
X108403089Y-117597968D01*
X108377371Y-117555920D01*
X108365351Y-117535919D01*
X108306869Y-117438089D01*
X108343908Y-117406923D01*
X108451866Y-117330592D01*
X108578749Y-117265571D01*
X108720319Y-117212745D01*
X108872338Y-117173003D01*
X109030567Y-117147231D01*
X109190769Y-117136316D01*
X109348706Y-117141144D01*
G37*
X109348706Y-117141144D02*
X109500139Y-117162604D01*
X109505750Y-117163768D01*
X109628719Y-117200848D01*
X109743934Y-117257422D01*
X109847561Y-117330622D01*
X109935768Y-117417579D01*
X110004722Y-117515424D01*
X110023356Y-117551200D01*
X110044362Y-117596811D01*
X110061878Y-117639311D01*
X110076221Y-117681520D01*
X110087709Y-117726258D01*
X110096659Y-117776345D01*
X110103388Y-117834601D01*
X110108215Y-117903847D01*
X110111457Y-117986903D01*
X110113430Y-118086590D01*
X110114454Y-118205727D01*
X110114845Y-118347135D01*
X110114863Y-118364000D01*
X110115350Y-118878350D01*
X109921675Y-118881855D01*
X109835876Y-118882542D01*
X109774896Y-118881056D01*
X109738903Y-118877404D01*
X109728000Y-118872078D01*
X109734188Y-118853803D01*
X109749720Y-118823773D01*
X109757024Y-118811422D01*
X109780572Y-118770979D01*
X109797016Y-118735431D01*
X109807612Y-118698699D01*
X109813620Y-118654709D01*
X109816296Y-118597382D01*
X109816900Y-118522152D01*
X109816900Y-118351300D01*
X109394625Y-118351520D01*
X109261635Y-118351917D01*
X109151085Y-118353160D01*
X109060020Y-118355554D01*
X108985487Y-118359407D01*
X108924531Y-118365024D01*
X108874196Y-118372710D01*
X108831530Y-118382772D01*
X108793578Y-118395516D01*
X108757385Y-118411248D01*
X108741279Y-118419184D01*
X108663806Y-118471848D01*
X108604821Y-118540401D01*
X108566077Y-118621629D01*
X108549323Y-118712316D01*
X108550513Y-118769487D01*
X108555834Y-118813068D01*
X108562235Y-118848642D01*
X108566131Y-118862475D01*
X108567965Y-118871813D01*
X108562035Y-118878105D01*
X108544459Y-118881942D01*
X108511355Y-118883920D01*
X108458840Y-118884632D01*
X108420860Y-118884700D01*
X108349778Y-118883863D01*
X108301379Y-118881176D01*
X108272995Y-118876373D01*
X108261959Y-118869186D01*
X108261834Y-118868825D01*
X108249408Y-118797152D01*
X108249745Y-118712307D01*
X108261901Y-118622502D01*
X108284931Y-118535949D01*
X108306149Y-118483499D01*
X108367423Y-118383993D01*
X108448951Y-118299815D01*
X108550733Y-118230965D01*
X108672768Y-118177443D01*
X108735084Y-118158141D01*
X108761942Y-118151202D01*
X108789061Y-118145505D01*
X108819334Y-118140892D01*
X108855649Y-118137203D01*
X108900898Y-118134281D01*
X108957972Y-118131967D01*
X109029761Y-118130101D01*
X109119156Y-118128526D01*
X109229048Y-118127082D01*
X109319183Y-118126070D01*
X109445368Y-118124591D01*
X109548424Y-118123068D01*
X109630623Y-118121391D01*
X109694235Y-118119448D01*
X109741531Y-118117130D01*
X109774782Y-118114326D01*
X109796259Y-118110925D01*
X109808234Y-118106819D01*
X109812913Y-118102071D01*
X109816017Y-118076304D01*
X109814833Y-118031763D01*
X109810122Y-117974567D01*
X109802649Y-117910835D01*
X109793176Y-117846685D01*
X109782467Y-117788236D01*
X109771283Y-117741607D01*
X109765899Y-117725029D01*
X109719522Y-117636585D01*
X109651683Y-117558878D01*
X109564786Y-117493949D01*
X109461234Y-117443838D01*
X109416850Y-117428750D01*
X109357702Y-117416511D01*
X109280930Y-117408823D01*
X109193902Y-117405693D01*
X109103984Y-117407132D01*
X109018543Y-117413147D01*
X108944947Y-117423748D01*
X108924886Y-117428162D01*
X108779979Y-117472756D01*
X108643260Y-117532378D01*
X108542319Y-117590566D01*
X108498339Y-117617716D01*
X108462152Y-117636850D01*
X108438885Y-117645416D01*
X108433473Y-117644721D01*
X108422970Y-117629453D01*
X108403089Y-117597968D01*
X108377371Y-117555920D01*
X108365351Y-117535919D01*
X108306869Y-117438089D01*
X108343908Y-117406923D01*
X108451866Y-117330592D01*
X108578749Y-117265571D01*
X108720319Y-117212745D01*
X108872338Y-117173003D01*
X109030567Y-117147231D01*
X109190769Y-117136316D01*
X109348706Y-117141144D01*
G36*
X114032161Y-117148527D02*
G01*
X114134502Y-117154601D01*
X114219228Y-117164963D01*
X114293995Y-117181364D01*
X114366462Y-117205558D01*
X114444286Y-117239297D01*
X114458750Y-117246180D01*
X114597102Y-117325212D01*
X114717024Y-117420888D01*
X114819932Y-117534627D01*
X114907248Y-117667845D01*
X114936032Y-117722650D01*
X114986398Y-117836229D01*
X115021895Y-117946119D01*
X115044763Y-118061219D01*
X115057240Y-118190432D01*
X115058200Y-118208425D01*
X115065860Y-118364000D01*
X113196696Y-118364000D01*
X113203591Y-118411625D01*
X113226927Y-118524433D01*
X113262495Y-118632684D01*
X113307669Y-118729880D01*
X113359824Y-118809522D01*
X113368652Y-118820214D01*
X113392760Y-118849723D01*
X113408098Y-118871080D01*
X113411000Y-118877193D01*
X113399061Y-118879904D01*
X113366291Y-118882179D01*
X113317255Y-118883823D01*
X113256520Y-118884643D01*
X113234969Y-118884700D01*
X113058938Y-118884700D01*
X113020625Y-118811675D01*
X112968356Y-118697006D01*
X112931595Y-118579501D01*
X112909040Y-118453215D01*
X112899387Y-118312203D01*
X112898821Y-118256050D01*
X112906924Y-118135400D01*
X113198945Y-118135400D01*
X113984422Y-118135400D01*
X114165625Y-118135220D01*
X114321971Y-118134677D01*
X114454003Y-118133760D01*
X114562261Y-118132461D01*
X114647288Y-118130770D01*
X114709625Y-118128677D01*
X114749812Y-118126175D01*
X114768392Y-118123252D01*
X114769900Y-118122032D01*
X114765353Y-118084483D01*
X114753178Y-118030997D01*
X114735574Y-117969056D01*
X114714740Y-117906145D01*
X114692873Y-117849748D01*
X114684287Y-117830600D01*
X114654503Y-117774597D01*
X114618935Y-117723249D01*
X114571919Y-117668965D01*
X114536296Y-117632266D01*
X114440491Y-117547002D01*
X114343537Y-117483865D01*
X114240545Y-117440869D01*
X114126626Y-117416027D01*
X113996891Y-117407354D01*
X113982500Y-117407300D01*
X113847461Y-117415616D01*
X113727996Y-117441299D01*
X113619689Y-117486047D01*
X113518125Y-117551557D01*
X113445473Y-117613681D01*
X113352135Y-117718061D01*
X113281008Y-117834643D01*
X113231877Y-117963841D01*
X113210169Y-118063822D01*
X113198945Y-118135400D01*
X112906924Y-118135400D01*
X112910575Y-118081053D01*
X112944121Y-117916414D01*
X112998588Y-117763507D01*
X113073106Y-117623704D01*
X113166804Y-117498380D01*
X113278812Y-117388908D01*
X113408259Y-117296661D01*
X113553361Y-117223393D01*
X113656678Y-117186171D01*
X113759648Y-117161851D01*
X113869601Y-117149287D01*
X113993871Y-117147332D01*
X114032161Y-117148527D01*
G37*
X114032161Y-117148527D02*
X114134502Y-117154601D01*
X114219228Y-117164963D01*
X114293995Y-117181364D01*
X114366462Y-117205558D01*
X114444286Y-117239297D01*
X114458750Y-117246180D01*
X114597102Y-117325212D01*
X114717024Y-117420888D01*
X114819932Y-117534627D01*
X114907248Y-117667845D01*
X114936032Y-117722650D01*
X114986398Y-117836229D01*
X115021895Y-117946119D01*
X115044763Y-118061219D01*
X115057240Y-118190432D01*
X115058200Y-118208425D01*
X115065860Y-118364000D01*
X113196696Y-118364000D01*
X113203591Y-118411625D01*
X113226927Y-118524433D01*
X113262495Y-118632684D01*
X113307669Y-118729880D01*
X113359824Y-118809522D01*
X113368652Y-118820214D01*
X113392760Y-118849723D01*
X113408098Y-118871080D01*
X113411000Y-118877193D01*
X113399061Y-118879904D01*
X113366291Y-118882179D01*
X113317255Y-118883823D01*
X113256520Y-118884643D01*
X113234969Y-118884700D01*
X113058938Y-118884700D01*
X113020625Y-118811675D01*
X112968356Y-118697006D01*
X112931595Y-118579501D01*
X112909040Y-118453215D01*
X112899387Y-118312203D01*
X112898821Y-118256050D01*
X112906924Y-118135400D01*
X113198945Y-118135400D01*
X113984422Y-118135400D01*
X114165625Y-118135220D01*
X114321971Y-118134677D01*
X114454003Y-118133760D01*
X114562261Y-118132461D01*
X114647288Y-118130770D01*
X114709625Y-118128677D01*
X114749812Y-118126175D01*
X114768392Y-118123252D01*
X114769900Y-118122032D01*
X114765353Y-118084483D01*
X114753178Y-118030997D01*
X114735574Y-117969056D01*
X114714740Y-117906145D01*
X114692873Y-117849748D01*
X114684287Y-117830600D01*
X114654503Y-117774597D01*
X114618935Y-117723249D01*
X114571919Y-117668965D01*
X114536296Y-117632266D01*
X114440491Y-117547002D01*
X114343537Y-117483865D01*
X114240545Y-117440869D01*
X114126626Y-117416027D01*
X113996891Y-117407354D01*
X113982500Y-117407300D01*
X113847461Y-117415616D01*
X113727996Y-117441299D01*
X113619689Y-117486047D01*
X113518125Y-117551557D01*
X113445473Y-117613681D01*
X113352135Y-117718061D01*
X113281008Y-117834643D01*
X113231877Y-117963841D01*
X113210169Y-118063822D01*
X113198945Y-118135400D01*
X112906924Y-118135400D01*
X112910575Y-118081053D01*
X112944121Y-117916414D01*
X112998588Y-117763507D01*
X113073106Y-117623704D01*
X113166804Y-117498380D01*
X113278812Y-117388908D01*
X113408259Y-117296661D01*
X113553361Y-117223393D01*
X113656678Y-117186171D01*
X113759648Y-117161851D01*
X113869601Y-117149287D01*
X113993871Y-117147332D01*
X114032161Y-117148527D01*
G36*
X104152700Y-114846100D02*
G01*
X118363676Y-114846100D01*
X118356642Y-114747675D01*
X118341157Y-114619403D01*
X118313687Y-114510665D01*
X118272867Y-114417920D01*
X118217330Y-114337628D01*
X118184609Y-114302037D01*
X118095787Y-114230845D01*
X117991024Y-114177667D01*
X117872778Y-114143007D01*
X117743504Y-114127367D01*
X117605659Y-114131249D01*
X117463738Y-114154681D01*
X117345792Y-114194630D01*
X117236797Y-114256412D01*
X117140413Y-114337015D01*
X117060300Y-114433430D01*
X117004672Y-114532261D01*
X116960650Y-114630172D01*
X116624100Y-114630200D01*
X116624100Y-113868200D01*
X116916200Y-113868200D01*
X116916200Y-114265710D01*
X116952190Y-114216180D01*
X117032618Y-114124108D01*
X117132114Y-114040460D01*
X117244661Y-113969669D01*
X117354350Y-113919787D01*
X117461848Y-113888342D01*
X117584583Y-113866842D01*
X117714174Y-113855882D01*
X117842240Y-113856058D01*
X117960400Y-113867965D01*
X117994501Y-113874297D01*
X118137998Y-113916393D01*
X118266571Y-113978643D01*
X118379148Y-114060031D01*
X118474659Y-114159539D01*
X118552031Y-114276151D01*
X118610193Y-114408851D01*
X118631027Y-114478169D01*
X118634839Y-114493625D01*
X118638238Y-114509954D01*
X118641247Y-114528630D01*
X118643889Y-114551129D01*
X118646190Y-114578925D01*
X118648172Y-114613494D01*
X118649861Y-114656309D01*
X118651279Y-114708847D01*
X118652452Y-114772581D01*
X118653402Y-114848988D01*
X118654155Y-114939541D01*
X118654733Y-115045717D01*
X118655161Y-115168988D01*
X118655464Y-115310832D01*
X118655664Y-115472722D01*
X118655787Y-115656133D01*
X118655856Y-115862541D01*
X118655882Y-116004975D01*
X118656100Y-117436900D01*
X118364000Y-117436900D01*
X118364000Y-115087400D01*
X104152700Y-115087400D01*
X104152700Y-117436900D01*
X103847900Y-117436900D01*
X103847900Y-112966500D01*
X104152700Y-112966500D01*
X104152700Y-114846100D01*
G37*
X104152700Y-114846100D02*
X118363676Y-114846100D01*
X118356642Y-114747675D01*
X118341157Y-114619403D01*
X118313687Y-114510665D01*
X118272867Y-114417920D01*
X118217330Y-114337628D01*
X118184609Y-114302037D01*
X118095787Y-114230845D01*
X117991024Y-114177667D01*
X117872778Y-114143007D01*
X117743504Y-114127367D01*
X117605659Y-114131249D01*
X117463738Y-114154681D01*
X117345792Y-114194630D01*
X117236797Y-114256412D01*
X117140413Y-114337015D01*
X117060300Y-114433430D01*
X117004672Y-114532261D01*
X116960650Y-114630172D01*
X116624100Y-114630200D01*
X116624100Y-113868200D01*
X116916200Y-113868200D01*
X116916200Y-114265710D01*
X116952190Y-114216180D01*
X117032618Y-114124108D01*
X117132114Y-114040460D01*
X117244661Y-113969669D01*
X117354350Y-113919787D01*
X117461848Y-113888342D01*
X117584583Y-113866842D01*
X117714174Y-113855882D01*
X117842240Y-113856058D01*
X117960400Y-113867965D01*
X117994501Y-113874297D01*
X118137998Y-113916393D01*
X118266571Y-113978643D01*
X118379148Y-114060031D01*
X118474659Y-114159539D01*
X118552031Y-114276151D01*
X118610193Y-114408851D01*
X118631027Y-114478169D01*
X118634839Y-114493625D01*
X118638238Y-114509954D01*
X118641247Y-114528630D01*
X118643889Y-114551129D01*
X118646190Y-114578925D01*
X118648172Y-114613494D01*
X118649861Y-114656309D01*
X118651279Y-114708847D01*
X118652452Y-114772581D01*
X118653402Y-114848988D01*
X118654155Y-114939541D01*
X118654733Y-115045717D01*
X118655161Y-115168988D01*
X118655464Y-115310832D01*
X118655664Y-115472722D01*
X118655787Y-115656133D01*
X118655856Y-115862541D01*
X118655882Y-116004975D01*
X118656100Y-117436900D01*
X118364000Y-117436900D01*
X118364000Y-115087400D01*
X104152700Y-115087400D01*
X104152700Y-117436900D01*
X103847900Y-117436900D01*
X103847900Y-112966500D01*
X104152700Y-112966500D01*
X104152700Y-114846100D01*
G36*
X110369350Y-115309650D02*
G01*
X110372708Y-115700175D01*
X110376067Y-116090700D01*
X110084214Y-116090700D01*
X110080732Y-115880694D01*
X110077250Y-115670689D01*
X110021395Y-115747422D01*
X109941461Y-115838540D01*
X109841786Y-115921891D01*
X109727674Y-115993945D01*
X109604428Y-116051175D01*
X109524452Y-116078038D01*
X109458231Y-116092144D01*
X109374946Y-116102793D01*
X109282749Y-116109562D01*
X109189796Y-116112031D01*
X109104238Y-116109779D01*
X109038819Y-116103135D01*
X108880508Y-116065704D01*
X108730329Y-116005617D01*
X108591068Y-115924642D01*
X108465509Y-115824546D01*
X108356438Y-115707093D01*
X108306369Y-115638562D01*
X108276876Y-115589971D01*
X108246288Y-115532092D01*
X108217266Y-115470914D01*
X108192470Y-115412424D01*
X108174559Y-115362611D01*
X108166194Y-115327464D01*
X108165900Y-115322368D01*
X108168980Y-115314018D01*
X108180878Y-115308607D01*
X108205578Y-115305715D01*
X108247063Y-115304926D01*
X108309319Y-115305821D01*
X108321085Y-115306084D01*
X108476270Y-115309650D01*
X108519118Y-115398550D01*
X108591657Y-115521067D01*
X108682156Y-115625953D01*
X108789323Y-115712145D01*
X108911865Y-115778578D01*
X109030929Y-115819726D01*
X109104192Y-115833112D01*
X109192620Y-115840121D01*
X109286885Y-115840771D01*
X109377661Y-115835081D01*
X109455621Y-115823069D01*
X109472900Y-115818843D01*
X109602131Y-115771542D01*
X109720490Y-115703555D01*
X109824898Y-115617397D01*
X109912278Y-115515580D01*
X109976117Y-115407890D01*
X110026450Y-115302970D01*
X110369350Y-115309650D01*
G37*
X110369350Y-115309650D02*
X110372708Y-115700175D01*
X110376067Y-116090700D01*
X110084214Y-116090700D01*
X110080732Y-115880694D01*
X110077250Y-115670689D01*
X110021395Y-115747422D01*
X109941461Y-115838540D01*
X109841786Y-115921891D01*
X109727674Y-115993945D01*
X109604428Y-116051175D01*
X109524452Y-116078038D01*
X109458231Y-116092144D01*
X109374946Y-116102793D01*
X109282749Y-116109562D01*
X109189796Y-116112031D01*
X109104238Y-116109779D01*
X109038819Y-116103135D01*
X108880508Y-116065704D01*
X108730329Y-116005617D01*
X108591068Y-115924642D01*
X108465509Y-115824546D01*
X108356438Y-115707093D01*
X108306369Y-115638562D01*
X108276876Y-115589971D01*
X108246288Y-115532092D01*
X108217266Y-115470914D01*
X108192470Y-115412424D01*
X108174559Y-115362611D01*
X108166194Y-115327464D01*
X108165900Y-115322368D01*
X108168980Y-115314018D01*
X108180878Y-115308607D01*
X108205578Y-115305715D01*
X108247063Y-115304926D01*
X108309319Y-115305821D01*
X108321085Y-115306084D01*
X108476270Y-115309650D01*
X108519118Y-115398550D01*
X108591657Y-115521067D01*
X108682156Y-115625953D01*
X108789323Y-115712145D01*
X108911865Y-115778578D01*
X109030929Y-115819726D01*
X109104192Y-115833112D01*
X109192620Y-115840121D01*
X109286885Y-115840771D01*
X109377661Y-115835081D01*
X109455621Y-115823069D01*
X109472900Y-115818843D01*
X109602131Y-115771542D01*
X109720490Y-115703555D01*
X109824898Y-115617397D01*
X109912278Y-115515580D01*
X109976117Y-115407890D01*
X110026450Y-115302970D01*
X110369350Y-115309650D01*
G36*
X113064628Y-115306114D02*
G01*
X113239550Y-115309650D01*
X113242908Y-115700175D01*
X113246267Y-116090700D01*
X112953800Y-116090700D01*
X112953203Y-115877975D01*
X112952607Y-115665250D01*
X112919105Y-115709700D01*
X112877630Y-115758928D01*
X112823795Y-115814668D01*
X112763976Y-115871031D01*
X112704551Y-115922124D01*
X112651897Y-115962057D01*
X112632072Y-115974840D01*
X112502479Y-116037939D01*
X112359175Y-116082729D01*
X112206795Y-116108468D01*
X112049971Y-116114414D01*
X111893338Y-116099828D01*
X111872790Y-116096305D01*
X111714172Y-116055272D01*
X111565660Y-115992203D01*
X111429483Y-115908665D01*
X111307870Y-115806221D01*
X111203048Y-115686439D01*
X111130265Y-115574741D01*
X111106560Y-115528761D01*
X111082871Y-115476313D01*
X111061327Y-115423049D01*
X111044061Y-115374621D01*
X111033203Y-115336680D01*
X111030885Y-115314879D01*
X111031581Y-115313036D01*
X111045910Y-115309229D01*
X111080414Y-115306120D01*
X111129869Y-115304034D01*
X111187173Y-115303300D01*
X111336747Y-115303300D01*
X111391116Y-115413020D01*
X111462965Y-115531294D01*
X111552157Y-115632382D01*
X111656821Y-115714408D01*
X111734600Y-115757732D01*
X111825707Y-115796655D01*
X111911088Y-115822165D01*
X112000267Y-115836313D01*
X112102765Y-115841151D01*
X112121950Y-115841196D01*
X112269050Y-115829275D01*
X112405757Y-115795011D01*
X112530540Y-115739390D01*
X112641869Y-115663402D01*
X112738214Y-115568032D01*
X112818045Y-115454269D01*
X112864103Y-115362308D01*
X112889706Y-115302579D01*
X113064628Y-115306114D01*
G37*
X113064628Y-115306114D02*
X113239550Y-115309650D01*
X113242908Y-115700175D01*
X113246267Y-116090700D01*
X112953800Y-116090700D01*
X112953203Y-115877975D01*
X112952607Y-115665250D01*
X112919105Y-115709700D01*
X112877630Y-115758928D01*
X112823795Y-115814668D01*
X112763976Y-115871031D01*
X112704551Y-115922124D01*
X112651897Y-115962057D01*
X112632072Y-115974840D01*
X112502479Y-116037939D01*
X112359175Y-116082729D01*
X112206795Y-116108468D01*
X112049971Y-116114414D01*
X111893338Y-116099828D01*
X111872790Y-116096305D01*
X111714172Y-116055272D01*
X111565660Y-115992203D01*
X111429483Y-115908665D01*
X111307870Y-115806221D01*
X111203048Y-115686439D01*
X111130265Y-115574741D01*
X111106560Y-115528761D01*
X111082871Y-115476313D01*
X111061327Y-115423049D01*
X111044061Y-115374621D01*
X111033203Y-115336680D01*
X111030885Y-115314879D01*
X111031581Y-115313036D01*
X111045910Y-115309229D01*
X111080414Y-115306120D01*
X111129869Y-115304034D01*
X111187173Y-115303300D01*
X111336747Y-115303300D01*
X111391116Y-115413020D01*
X111462965Y-115531294D01*
X111552157Y-115632382D01*
X111656821Y-115714408D01*
X111734600Y-115757732D01*
X111825707Y-115796655D01*
X111911088Y-115822165D01*
X112000267Y-115836313D01*
X112102765Y-115841151D01*
X112121950Y-115841196D01*
X112269050Y-115829275D01*
X112405757Y-115795011D01*
X112530540Y-115739390D01*
X112641869Y-115663402D01*
X112738214Y-115568032D01*
X112818045Y-115454269D01*
X112864103Y-115362308D01*
X112889706Y-115302579D01*
X113064628Y-115306114D01*
G36*
X114234648Y-115390194D02*
G01*
X114304112Y-115506742D01*
X114393463Y-115609230D01*
X114500280Y-115695744D01*
X114622143Y-115764371D01*
X114756631Y-115813198D01*
X114776250Y-115818325D01*
X114860390Y-115832959D01*
X114959688Y-115840277D01*
X115065005Y-115840368D01*
X115167202Y-115833323D01*
X115257141Y-115819235D01*
X115281716Y-115813287D01*
X115417979Y-115764194D01*
X115543074Y-115694102D01*
X115629009Y-115627296D01*
X115707068Y-115557614D01*
X115792773Y-115655493D01*
X115878478Y-115753371D01*
X115786342Y-115839678D01*
X115697264Y-115910946D01*
X115590641Y-115976414D01*
X115474275Y-116031945D01*
X115355967Y-116073400D01*
X115335050Y-116079052D01*
X115273113Y-116091058D01*
X115193839Y-116100732D01*
X115104702Y-116107708D01*
X115013178Y-116111625D01*
X114926743Y-116112119D01*
X114852873Y-116108827D01*
X114814350Y-116104357D01*
X114661898Y-116072581D01*
X114527985Y-116028759D01*
X114407616Y-115970412D01*
X114295802Y-115895061D01*
X114187550Y-115800226D01*
X114173020Y-115785879D01*
X114065728Y-115665657D01*
X113983174Y-115544031D01*
X113924696Y-115419918D01*
X113899487Y-115338225D01*
X113890846Y-115303300D01*
X114193149Y-115303300D01*
X114234648Y-115390194D01*
G37*
X114234648Y-115390194D02*
X114304112Y-115506742D01*
X114393463Y-115609230D01*
X114500280Y-115695744D01*
X114622143Y-115764371D01*
X114756631Y-115813198D01*
X114776250Y-115818325D01*
X114860390Y-115832959D01*
X114959688Y-115840277D01*
X115065005Y-115840368D01*
X115167202Y-115833323D01*
X115257141Y-115819235D01*
X115281716Y-115813287D01*
X115417979Y-115764194D01*
X115543074Y-115694102D01*
X115629009Y-115627296D01*
X115707068Y-115557614D01*
X115792773Y-115655493D01*
X115878478Y-115753371D01*
X115786342Y-115839678D01*
X115697264Y-115910946D01*
X115590641Y-115976414D01*
X115474275Y-116031945D01*
X115355967Y-116073400D01*
X115335050Y-116079052D01*
X115273113Y-116091058D01*
X115193839Y-116100732D01*
X115104702Y-116107708D01*
X115013178Y-116111625D01*
X114926743Y-116112119D01*
X114852873Y-116108827D01*
X114814350Y-116104357D01*
X114661898Y-116072581D01*
X114527985Y-116028759D01*
X114407616Y-115970412D01*
X114295802Y-115895061D01*
X114187550Y-115800226D01*
X114173020Y-115785879D01*
X114065728Y-115665657D01*
X113983174Y-115544031D01*
X113924696Y-115419918D01*
X113899487Y-115338225D01*
X113890846Y-115303300D01*
X114193149Y-115303300D01*
X114234648Y-115390194D01*
G36*
X106308708Y-115700175D02*
G01*
X106312067Y-116090700D01*
X105993832Y-116090700D01*
X106000550Y-115309650D01*
X106305350Y-115309650D01*
X106308708Y-115700175D01*
G37*
X106308708Y-115700175D02*
X106312067Y-116090700D01*
X105993832Y-116090700D01*
X106000550Y-115309650D01*
X106305350Y-115309650D01*
X106308708Y-115700175D01*
G36*
X107505500Y-116090700D02*
G01*
X107200332Y-116090700D01*
X107207050Y-115309650D01*
X107356275Y-115306071D01*
X107505500Y-115302493D01*
X107505500Y-116090700D01*
G37*
X107505500Y-116090700D02*
X107200332Y-116090700D01*
X107207050Y-115309650D01*
X107356275Y-115306071D01*
X107505500Y-115302493D01*
X107505500Y-116090700D01*
G36*
X116773325Y-115306071D02*
G01*
X116922550Y-115309650D01*
X116925908Y-115700175D01*
X116929267Y-116090700D01*
X116624100Y-116090700D01*
X116624100Y-115302493D01*
X116773325Y-115306071D01*
G37*
X116773325Y-115306071D02*
X116922550Y-115309650D01*
X116925908Y-115700175D01*
X116929267Y-116090700D01*
X116624100Y-116090700D01*
X116624100Y-115302493D01*
X116773325Y-115306071D01*
G36*
X106311700Y-114630200D02*
G01*
X105994200Y-114630200D01*
X105994200Y-112966500D01*
X106311700Y-112966500D01*
X106311700Y-114630200D01*
G37*
X106311700Y-114630200D02*
X105994200Y-114630200D01*
X105994200Y-112966500D01*
X106311700Y-112966500D01*
X106311700Y-114630200D01*
G36*
X107505500Y-114630200D02*
G01*
X107200700Y-114630200D01*
X107200700Y-113868200D01*
X107505500Y-113868200D01*
X107505500Y-114630200D01*
G37*
X107505500Y-114630200D02*
X107200700Y-114630200D01*
X107200700Y-113868200D01*
X107505500Y-113868200D01*
X107505500Y-114630200D01*
G36*
X110375700Y-114630200D02*
G01*
X110194725Y-114630145D01*
X110013750Y-114630091D01*
X109963300Y-114531720D01*
X109893676Y-114423095D01*
X109803978Y-114327045D01*
X109697446Y-114246060D01*
X109577318Y-114182629D01*
X109455456Y-114141376D01*
X109388289Y-114129887D01*
X109305491Y-114123939D01*
X109216219Y-114123519D01*
X109129628Y-114128613D01*
X109054873Y-114139207D01*
X109042200Y-114141973D01*
X108918924Y-114183320D01*
X108802039Y-114246354D01*
X108695916Y-114327696D01*
X108604922Y-114423965D01*
X108533429Y-114531781D01*
X108530073Y-114538125D01*
X108482014Y-114630200D01*
X108167673Y-114630200D01*
X108178042Y-114595275D01*
X108234207Y-114449637D01*
X108311774Y-114315612D01*
X108408716Y-114195000D01*
X108523007Y-114089600D01*
X108652622Y-114001212D01*
X108795535Y-113931636D01*
X108949718Y-113882672D01*
X108990261Y-113873768D01*
X109063933Y-113863631D01*
X109152953Y-113858489D01*
X109249539Y-113858147D01*
X109345905Y-113862411D01*
X109434268Y-113871087D01*
X109506841Y-113883980D01*
X109518450Y-113886958D01*
X109627406Y-113925505D01*
X109736942Y-113980029D01*
X109840827Y-114046468D01*
X109932830Y-114120759D01*
X110006719Y-114198839D01*
X110016826Y-114211924D01*
X110064550Y-114275852D01*
X110071128Y-112966500D01*
X110375700Y-112966500D01*
X110375700Y-114630200D01*
G37*
X110375700Y-114630200D02*
X110194725Y-114630145D01*
X110013750Y-114630091D01*
X109963300Y-114531720D01*
X109893676Y-114423095D01*
X109803978Y-114327045D01*
X109697446Y-114246060D01*
X109577318Y-114182629D01*
X109455456Y-114141376D01*
X109388289Y-114129887D01*
X109305491Y-114123939D01*
X109216219Y-114123519D01*
X109129628Y-114128613D01*
X109054873Y-114139207D01*
X109042200Y-114141973D01*
X108918924Y-114183320D01*
X108802039Y-114246354D01*
X108695916Y-114327696D01*
X108604922Y-114423965D01*
X108533429Y-114531781D01*
X108530073Y-114538125D01*
X108482014Y-114630200D01*
X108167673Y-114630200D01*
X108178042Y-114595275D01*
X108234207Y-114449637D01*
X108311774Y-114315612D01*
X108408716Y-114195000D01*
X108523007Y-114089600D01*
X108652622Y-114001212D01*
X108795535Y-113931636D01*
X108949718Y-113882672D01*
X108990261Y-113873768D01*
X109063933Y-113863631D01*
X109152953Y-113858489D01*
X109249539Y-113858147D01*
X109345905Y-113862411D01*
X109434268Y-113871087D01*
X109506841Y-113883980D01*
X109518450Y-113886958D01*
X109627406Y-113925505D01*
X109736942Y-113980029D01*
X109840827Y-114046468D01*
X109932830Y-114120759D01*
X110006719Y-114198839D01*
X110016826Y-114211924D01*
X110064550Y-114275852D01*
X110071128Y-112966500D01*
X110375700Y-112966500D01*
X110375700Y-114630200D01*
G36*
X113242816Y-113795175D02*
G01*
X113239550Y-114623850D01*
X113058909Y-114627371D01*
X112878268Y-114630893D01*
X112833398Y-114541794D01*
X112762143Y-114427687D01*
X112672448Y-114329582D01*
X112566621Y-114248827D01*
X112446969Y-114186770D01*
X112315801Y-114144762D01*
X112175424Y-114124152D01*
X112115600Y-114122200D01*
X111967608Y-114133639D01*
X111829844Y-114167332D01*
X111703870Y-114222340D01*
X111591250Y-114297724D01*
X111493544Y-114392545D01*
X111412316Y-114505864D01*
X111381121Y-114563525D01*
X111348308Y-114630200D01*
X111192204Y-114630200D01*
X111116805Y-114629093D01*
X111065884Y-114625792D01*
X111039771Y-114620326D01*
X111036100Y-114616491D01*
X111041476Y-114593069D01*
X111055778Y-114553443D01*
X111076263Y-114503970D01*
X111100189Y-114451006D01*
X111124814Y-114400909D01*
X111144950Y-114364133D01*
X111232716Y-114239779D01*
X111339931Y-114129248D01*
X111463548Y-114034569D01*
X111600520Y-113957772D01*
X111747798Y-113900889D01*
X111889887Y-113867871D01*
X111972148Y-113859137D01*
X112066524Y-113856333D01*
X112165313Y-113859074D01*
X112260807Y-113866975D01*
X112345302Y-113879650D01*
X112401350Y-113893453D01*
X112524918Y-113939833D01*
X112632951Y-113997534D01*
X112733311Y-114071341D01*
X112810925Y-114142776D01*
X112928400Y-114259620D01*
X112928400Y-112966500D01*
X113246083Y-112966500D01*
X113242816Y-113795175D01*
G37*
X113242816Y-113795175D02*
X113239550Y-114623850D01*
X113058909Y-114627371D01*
X112878268Y-114630893D01*
X112833398Y-114541794D01*
X112762143Y-114427687D01*
X112672448Y-114329582D01*
X112566621Y-114248827D01*
X112446969Y-114186770D01*
X112315801Y-114144762D01*
X112175424Y-114124152D01*
X112115600Y-114122200D01*
X111967608Y-114133639D01*
X111829844Y-114167332D01*
X111703870Y-114222340D01*
X111591250Y-114297724D01*
X111493544Y-114392545D01*
X111412316Y-114505864D01*
X111381121Y-114563525D01*
X111348308Y-114630200D01*
X111192204Y-114630200D01*
X111116805Y-114629093D01*
X111065884Y-114625792D01*
X111039771Y-114620326D01*
X111036100Y-114616491D01*
X111041476Y-114593069D01*
X111055778Y-114553443D01*
X111076263Y-114503970D01*
X111100189Y-114451006D01*
X111124814Y-114400909D01*
X111144950Y-114364133D01*
X111232716Y-114239779D01*
X111339931Y-114129248D01*
X111463548Y-114034569D01*
X111600520Y-113957772D01*
X111747798Y-113900889D01*
X111889887Y-113867871D01*
X111972148Y-113859137D01*
X112066524Y-113856333D01*
X112165313Y-113859074D01*
X112260807Y-113866975D01*
X112345302Y-113879650D01*
X112401350Y-113893453D01*
X112524918Y-113939833D01*
X112632951Y-113997534D01*
X112733311Y-114071341D01*
X112810925Y-114142776D01*
X112928400Y-114259620D01*
X112928400Y-112966500D01*
X113246083Y-112966500D01*
X113242816Y-113795175D01*
G36*
X115003144Y-113858632D02*
G01*
X115108603Y-113866865D01*
X115203020Y-113881279D01*
X115252152Y-113893147D01*
X115392916Y-113946134D01*
X115526832Y-114020211D01*
X115648602Y-114111898D01*
X115752928Y-114217713D01*
X115760858Y-114227293D01*
X115792898Y-114271451D01*
X115829329Y-114329341D01*
X115866803Y-114394734D01*
X115901977Y-114461401D01*
X115931504Y-114523110D01*
X115952038Y-114573634D01*
X115958490Y-114595275D01*
X115966453Y-114630200D01*
X115676273Y-114630200D01*
X115648448Y-114563525D01*
X115589813Y-114454986D01*
X115510759Y-114357477D01*
X115414661Y-114273143D01*
X115304895Y-114204127D01*
X115184836Y-114152573D01*
X115057860Y-114120624D01*
X114935000Y-114110386D01*
X114798380Y-114122395D01*
X114667724Y-114157230D01*
X114545930Y-114213100D01*
X114435899Y-114288215D01*
X114340529Y-114380786D01*
X114262720Y-114489022D01*
X114233733Y-114543350D01*
X114192050Y-114630193D01*
X114043711Y-114630196D01*
X113895373Y-114630200D01*
X113905997Y-114595275D01*
X113961062Y-114450674D01*
X114034913Y-114320274D01*
X114130551Y-114198901D01*
X114145574Y-114182628D01*
X114263038Y-114075905D01*
X114396166Y-113988051D01*
X114541939Y-113920732D01*
X114697334Y-113875616D01*
X114705261Y-113873981D01*
X114793000Y-113861892D01*
X114895119Y-113856875D01*
X115003144Y-113858632D01*
G37*
X115003144Y-113858632D02*
X115108603Y-113866865D01*
X115203020Y-113881279D01*
X115252152Y-113893147D01*
X115392916Y-113946134D01*
X115526832Y-114020211D01*
X115648602Y-114111898D01*
X115752928Y-114217713D01*
X115760858Y-114227293D01*
X115792898Y-114271451D01*
X115829329Y-114329341D01*
X115866803Y-114394734D01*
X115901977Y-114461401D01*
X115931504Y-114523110D01*
X115952038Y-114573634D01*
X115958490Y-114595275D01*
X115966453Y-114630200D01*
X115676273Y-114630200D01*
X115648448Y-114563525D01*
X115589813Y-114454986D01*
X115510759Y-114357477D01*
X115414661Y-114273143D01*
X115304895Y-114204127D01*
X115184836Y-114152573D01*
X115057860Y-114120624D01*
X114935000Y-114110386D01*
X114798380Y-114122395D01*
X114667724Y-114157230D01*
X114545930Y-114213100D01*
X114435899Y-114288215D01*
X114340529Y-114380786D01*
X114262720Y-114489022D01*
X114233733Y-114543350D01*
X114192050Y-114630193D01*
X114043711Y-114630196D01*
X113895373Y-114630200D01*
X113905997Y-114595275D01*
X113961062Y-114450674D01*
X114034913Y-114320274D01*
X114130551Y-114198901D01*
X114145574Y-114182628D01*
X114263038Y-114075905D01*
X114396166Y-113988051D01*
X114541939Y-113920732D01*
X114697334Y-113875616D01*
X114705261Y-113873981D01*
X114793000Y-113861892D01*
X114895119Y-113856875D01*
X115003144Y-113858632D01*
G36*
X107440387Y-113151857D02*
G01*
X107502652Y-113191654D01*
X107520215Y-113208512D01*
X107561634Y-113268234D01*
X107579376Y-113333111D01*
X107573347Y-113399131D01*
X107543454Y-113462281D01*
X107526633Y-113483768D01*
X107468972Y-113532031D01*
X107402498Y-113558554D01*
X107331964Y-113562482D01*
X107262125Y-113542958D01*
X107245408Y-113534357D01*
X107189059Y-113489080D01*
X107153577Y-113430122D01*
X107140356Y-113360109D01*
X107140931Y-113337448D01*
X107153981Y-113271712D01*
X107184979Y-113219175D01*
X107237630Y-113173580D01*
X107238212Y-113173184D01*
X107304320Y-113142140D01*
X107372994Y-113135192D01*
X107440387Y-113151857D01*
G37*
X107440387Y-113151857D02*
X107502652Y-113191654D01*
X107520215Y-113208512D01*
X107561634Y-113268234D01*
X107579376Y-113333111D01*
X107573347Y-113399131D01*
X107543454Y-113462281D01*
X107526633Y-113483768D01*
X107468972Y-113532031D01*
X107402498Y-113558554D01*
X107331964Y-113562482D01*
X107262125Y-113542958D01*
X107245408Y-113534357D01*
X107189059Y-113489080D01*
X107153577Y-113430122D01*
X107140356Y-113360109D01*
X107140931Y-113337448D01*
X107153981Y-113271712D01*
X107184979Y-113219175D01*
X107237630Y-113173580D01*
X107238212Y-113173184D01*
X107304320Y-113142140D01*
X107372994Y-113135192D01*
X107440387Y-113151857D01*
D13*
%TO.C,ON1*%
X170862000Y-95756000D02*
X170862000Y-96056000D01*
X170862000Y-96056000D02*
X173862000Y-96056000D01*
X173862000Y-96056000D02*
X173862000Y-88856000D01*
X173862000Y-88856000D02*
X170862000Y-88856000D01*
X170862000Y-88856000D02*
X170862000Y-89156000D01*
D14*
X169932000Y-96456000D02*
G75*
G03*
X169932000Y-96456000I-170000J0D01*
G01*
D11*
%TO.C,J2*%
X106934000Y-63814000D02*
X106934000Y-61154000D01*
X106934000Y-63814000D02*
X109534000Y-63814000D01*
X109534000Y-63814000D02*
X109534000Y-61154000D01*
X106934000Y-61154000D02*
X109534000Y-61154000D01*
X104334000Y-61154000D02*
X105664000Y-61154000D01*
X104334000Y-62484000D02*
X104334000Y-61154000D01*
%TO.C,RST_BTN1*%
X164254000Y-81872000D02*
X164254000Y-77132000D01*
X164254000Y-81872000D02*
X164654000Y-81872000D01*
X164254000Y-77132000D02*
X164654000Y-77132000D01*
X168994000Y-81872000D02*
X168594000Y-81872000D01*
X168994000Y-81872000D02*
X168994000Y-77132000D01*
X168994000Y-77132000D02*
X168594000Y-77132000D01*
X167654000Y-77132000D02*
X165594000Y-77132000D01*
X167654000Y-81872000D02*
X165594000Y-81872000D01*
%TO.C,3V3*%
X162962000Y-113330000D02*
X162962000Y-111830000D01*
X162962000Y-111830000D02*
X162692000Y-111830000D01*
X162692000Y-111830000D02*
X162692000Y-109000000D01*
X156062000Y-113330000D02*
X156062000Y-111830000D01*
X156062000Y-111830000D02*
X156332000Y-111830000D01*
X156332000Y-111830000D02*
X156332000Y-110730000D01*
%TO.C,R1*%
D10*
X105243333Y-89860380D02*
X104910000Y-89384190D01*
X104671904Y-89860380D02*
X104671904Y-88860380D01*
X105052857Y-88860380D01*
X105148095Y-88908000D01*
X105195714Y-88955619D01*
X105243333Y-89050857D01*
X105243333Y-89193714D01*
X105195714Y-89288952D01*
X105148095Y-89336571D01*
X105052857Y-89384190D01*
X104671904Y-89384190D01*
X106195714Y-89860380D02*
X105624285Y-89860380D01*
X105910000Y-89860380D02*
X105910000Y-88860380D01*
X105814761Y-89003238D01*
X105719523Y-89098476D01*
X105624285Y-89146095D01*
X105367080Y-84161238D02*
X105367080Y-84732666D01*
X105367080Y-84446952D02*
X104367080Y-84446952D01*
X104509938Y-84542190D01*
X104605176Y-84637428D01*
X104652795Y-84732666D01*
X104367080Y-83542190D02*
X104367080Y-83446952D01*
X104414700Y-83351714D01*
X104462319Y-83304095D01*
X104557557Y-83256476D01*
X104748033Y-83208857D01*
X104986128Y-83208857D01*
X105176604Y-83256476D01*
X105271842Y-83304095D01*
X105319461Y-83351714D01*
X105367080Y-83446952D01*
X105367080Y-83542190D01*
X105319461Y-83637428D01*
X105271842Y-83685047D01*
X105176604Y-83732666D01*
X104986128Y-83780285D01*
X104748033Y-83780285D01*
X104557557Y-83732666D01*
X104462319Y-83685047D01*
X104414700Y-83637428D01*
X104367080Y-83542190D01*
X105367080Y-82780285D02*
X104367080Y-82780285D01*
X104986128Y-82685047D02*
X105367080Y-82399333D01*
X104700414Y-82399333D02*
X105081366Y-82780285D01*
X104354380Y-81026000D02*
X104592476Y-81026000D01*
X104497238Y-81264095D02*
X104592476Y-81026000D01*
X104497238Y-80787904D01*
X104782952Y-81168857D02*
X104592476Y-81026000D01*
X104782952Y-80883142D01*
%TO.C,TP_5V0*%
X151122380Y-94702380D02*
X151693809Y-94702380D01*
X151408095Y-95702380D02*
X151408095Y-94702380D01*
X152027142Y-95702380D02*
X152027142Y-94702380D01*
X152408095Y-94702380D01*
X152503333Y-94750000D01*
X152550952Y-94797619D01*
X152598571Y-94892857D01*
X152598571Y-95035714D01*
X152550952Y-95130952D01*
X152503333Y-95178571D01*
X152408095Y-95226190D01*
X152027142Y-95226190D01*
X152789047Y-95797619D02*
X153550952Y-95797619D01*
X154265238Y-94702380D02*
X153789047Y-94702380D01*
X153741428Y-95178571D01*
X153789047Y-95130952D01*
X153884285Y-95083333D01*
X154122380Y-95083333D01*
X154217619Y-95130952D01*
X154265238Y-95178571D01*
X154312857Y-95273809D01*
X154312857Y-95511904D01*
X154265238Y-95607142D01*
X154217619Y-95654761D01*
X154122380Y-95702380D01*
X153884285Y-95702380D01*
X153789047Y-95654761D01*
X153741428Y-95607142D01*
X154598571Y-94702380D02*
X154931904Y-95702380D01*
X155265238Y-94702380D01*
X155789047Y-94702380D02*
X155884285Y-94702380D01*
X155979523Y-94750000D01*
X156027142Y-94797619D01*
X156074761Y-94892857D01*
X156122380Y-95083333D01*
X156122380Y-95321428D01*
X156074761Y-95511904D01*
X156027142Y-95607142D01*
X155979523Y-95654761D01*
X155884285Y-95702380D01*
X155789047Y-95702380D01*
X155693809Y-95654761D01*
X155646190Y-95607142D01*
X155598571Y-95511904D01*
X155550952Y-95321428D01*
X155550952Y-95083333D01*
X155598571Y-94892857D01*
X155646190Y-94797619D01*
X155693809Y-94750000D01*
X155789047Y-94702380D01*
%TO.C,TP_GND0*%
X120531333Y-115312380D02*
X121102761Y-115312380D01*
X120817047Y-116312380D02*
X120817047Y-115312380D01*
X121436095Y-116312380D02*
X121436095Y-115312380D01*
X121817047Y-115312380D01*
X121912285Y-115360000D01*
X121959904Y-115407619D01*
X122007523Y-115502857D01*
X122007523Y-115645714D01*
X121959904Y-115740952D01*
X121912285Y-115788571D01*
X121817047Y-115836190D01*
X121436095Y-115836190D01*
X122198000Y-116407619D02*
X122959904Y-116407619D01*
X123721809Y-115360000D02*
X123626571Y-115312380D01*
X123483714Y-115312380D01*
X123340857Y-115360000D01*
X123245619Y-115455238D01*
X123198000Y-115550476D01*
X123150380Y-115740952D01*
X123150380Y-115883809D01*
X123198000Y-116074285D01*
X123245619Y-116169523D01*
X123340857Y-116264761D01*
X123483714Y-116312380D01*
X123578952Y-116312380D01*
X123721809Y-116264761D01*
X123769428Y-116217142D01*
X123769428Y-115883809D01*
X123578952Y-115883809D01*
X124198000Y-116312380D02*
X124198000Y-115312380D01*
X124769428Y-116312380D01*
X124769428Y-115312380D01*
X125245619Y-116312380D02*
X125245619Y-115312380D01*
X125483714Y-115312380D01*
X125626571Y-115360000D01*
X125721809Y-115455238D01*
X125769428Y-115550476D01*
X125817047Y-115740952D01*
X125817047Y-115883809D01*
X125769428Y-116074285D01*
X125721809Y-116169523D01*
X125626571Y-116264761D01*
X125483714Y-116312380D01*
X125245619Y-116312380D01*
X126436095Y-115312380D02*
X126531333Y-115312380D01*
X126626571Y-115360000D01*
X126674190Y-115407619D01*
X126721809Y-115502857D01*
X126769428Y-115693333D01*
X126769428Y-115931428D01*
X126721809Y-116121904D01*
X126674190Y-116217142D01*
X126626571Y-116264761D01*
X126531333Y-116312380D01*
X126436095Y-116312380D01*
X126340857Y-116264761D01*
X126293238Y-116217142D01*
X126245619Y-116121904D01*
X126198000Y-115931428D01*
X126198000Y-115693333D01*
X126245619Y-115502857D01*
X126293238Y-115407619D01*
X126340857Y-115360000D01*
X126436095Y-115312380D01*
%TO.C,TP_3V3*%
X120388380Y-109978380D02*
X120959809Y-109978380D01*
X120674095Y-110978380D02*
X120674095Y-109978380D01*
X121293142Y-110978380D02*
X121293142Y-109978380D01*
X121674095Y-109978380D01*
X121769333Y-110026000D01*
X121816952Y-110073619D01*
X121864571Y-110168857D01*
X121864571Y-110311714D01*
X121816952Y-110406952D01*
X121769333Y-110454571D01*
X121674095Y-110502190D01*
X121293142Y-110502190D01*
X122055047Y-111073619D02*
X122816952Y-111073619D01*
X122959809Y-109978380D02*
X123578857Y-109978380D01*
X123245523Y-110359333D01*
X123388380Y-110359333D01*
X123483619Y-110406952D01*
X123531238Y-110454571D01*
X123578857Y-110549809D01*
X123578857Y-110787904D01*
X123531238Y-110883142D01*
X123483619Y-110930761D01*
X123388380Y-110978380D01*
X123102666Y-110978380D01*
X123007428Y-110930761D01*
X122959809Y-110883142D01*
X123864571Y-109978380D02*
X124197904Y-110978380D01*
X124531238Y-109978380D01*
X124769333Y-109978380D02*
X125388380Y-109978380D01*
X125055047Y-110359333D01*
X125197904Y-110359333D01*
X125293142Y-110406952D01*
X125340761Y-110454571D01*
X125388380Y-110549809D01*
X125388380Y-110787904D01*
X125340761Y-110883142D01*
X125293142Y-110930761D01*
X125197904Y-110978380D01*
X124912190Y-110978380D01*
X124816952Y-110930761D01*
X124769333Y-110883142D01*
%TO.C,U6*%
X107442095Y-71842380D02*
X107442095Y-72651904D01*
X107489714Y-72747142D01*
X107537333Y-72794761D01*
X107632571Y-72842380D01*
X107823047Y-72842380D01*
X107918285Y-72794761D01*
X107965904Y-72747142D01*
X108013523Y-72651904D01*
X108013523Y-71842380D01*
X108918285Y-71842380D02*
X108727809Y-71842380D01*
X108632571Y-71890000D01*
X108584952Y-71937619D01*
X108489714Y-72080476D01*
X108442095Y-72270952D01*
X108442095Y-72651904D01*
X108489714Y-72747142D01*
X108537333Y-72794761D01*
X108632571Y-72842380D01*
X108823047Y-72842380D01*
X108918285Y-72794761D01*
X108965904Y-72747142D01*
X109013523Y-72651904D01*
X109013523Y-72413809D01*
X108965904Y-72318571D01*
X108918285Y-72270952D01*
X108823047Y-72223333D01*
X108632571Y-72223333D01*
X108537333Y-72270952D01*
X108489714Y-72318571D01*
X108442095Y-72413809D01*
%TO.C,TAG1*%
X143343523Y-105370380D02*
X143914952Y-105370380D01*
X143629238Y-106370380D02*
X143629238Y-105370380D01*
X144200666Y-106084666D02*
X144676857Y-106084666D01*
X144105428Y-106370380D02*
X144438761Y-105370380D01*
X144772095Y-106370380D01*
X145629238Y-105418000D02*
X145534000Y-105370380D01*
X145391142Y-105370380D01*
X145248285Y-105418000D01*
X145153047Y-105513238D01*
X145105428Y-105608476D01*
X145057809Y-105798952D01*
X145057809Y-105941809D01*
X145105428Y-106132285D01*
X145153047Y-106227523D01*
X145248285Y-106322761D01*
X145391142Y-106370380D01*
X145486380Y-106370380D01*
X145629238Y-106322761D01*
X145676857Y-106275142D01*
X145676857Y-105941809D01*
X145486380Y-105941809D01*
X146629238Y-106370380D02*
X146057809Y-106370380D01*
X146343523Y-106370380D02*
X146343523Y-105370380D01*
X146248285Y-105513238D01*
X146153047Y-105608476D01*
X146057809Y-105656095D01*
D15*
X143097238Y-106723690D02*
X143002000Y-106723690D01*
X142954380Y-106747500D01*
X142930571Y-106771309D01*
X142882952Y-106842738D01*
X142859142Y-106937976D01*
X142859142Y-107128452D01*
X142882952Y-107176071D01*
X142906761Y-107199880D01*
X142954380Y-107223690D01*
X143049619Y-107223690D01*
X143097238Y-107199880D01*
X143121047Y-107176071D01*
X143144857Y-107128452D01*
X143144857Y-107009404D01*
X143121047Y-106961785D01*
X143097238Y-106937976D01*
X143049619Y-106914166D01*
X142954380Y-106914166D01*
X142906761Y-106937976D01*
X142882952Y-106961785D01*
X142859142Y-107009404D01*
X143144857Y-110208190D02*
X142859142Y-110208190D01*
X143002000Y-110208190D02*
X143002000Y-109708190D01*
X142954380Y-109779619D01*
X142906761Y-109827238D01*
X142859142Y-109851047D01*
X145637238Y-106890357D02*
X145637238Y-107223690D01*
X145518190Y-106699880D02*
X145399142Y-107057023D01*
X145708666Y-107057023D01*
X145375333Y-109708190D02*
X145684857Y-109708190D01*
X145518190Y-109898666D01*
X145589619Y-109898666D01*
X145637238Y-109922476D01*
X145661047Y-109946285D01*
X145684857Y-109993904D01*
X145684857Y-110112952D01*
X145661047Y-110160571D01*
X145637238Y-110184380D01*
X145589619Y-110208190D01*
X145446761Y-110208190D01*
X145399142Y-110184380D01*
X145375333Y-110160571D01*
%TO.C,R5*%
D10*
X144105333Y-102306380D02*
X143772000Y-101830190D01*
X143533904Y-102306380D02*
X143533904Y-101306380D01*
X143914857Y-101306380D01*
X144010095Y-101354000D01*
X144057714Y-101401619D01*
X144105333Y-101496857D01*
X144105333Y-101639714D01*
X144057714Y-101734952D01*
X144010095Y-101782571D01*
X143914857Y-101830190D01*
X143533904Y-101830190D01*
X145010095Y-101306380D02*
X144533904Y-101306380D01*
X144486285Y-101782571D01*
X144533904Y-101734952D01*
X144629142Y-101687333D01*
X144867238Y-101687333D01*
X144962476Y-101734952D01*
X145010095Y-101782571D01*
X145057714Y-101877809D01*
X145057714Y-102115904D01*
X145010095Y-102211142D01*
X144962476Y-102258761D01*
X144867238Y-102306380D01*
X144629142Y-102306380D01*
X144533904Y-102258761D01*
X144486285Y-102211142D01*
%TO.C,R3*%
X139533333Y-104846380D02*
X139200000Y-104370190D01*
X138961904Y-104846380D02*
X138961904Y-103846380D01*
X139342857Y-103846380D01*
X139438095Y-103894000D01*
X139485714Y-103941619D01*
X139533333Y-104036857D01*
X139533333Y-104179714D01*
X139485714Y-104274952D01*
X139438095Y-104322571D01*
X139342857Y-104370190D01*
X138961904Y-104370190D01*
X139866666Y-103846380D02*
X140485714Y-103846380D01*
X140152380Y-104227333D01*
X140295238Y-104227333D01*
X140390476Y-104274952D01*
X140438095Y-104322571D01*
X140485714Y-104417809D01*
X140485714Y-104655904D01*
X140438095Y-104751142D01*
X140390476Y-104798761D01*
X140295238Y-104846380D01*
X140009523Y-104846380D01*
X139914285Y-104798761D01*
X139866666Y-104751142D01*
%TO.C,R2*%
X131659333Y-104498380D02*
X131326000Y-104022190D01*
X131087904Y-104498380D02*
X131087904Y-103498380D01*
X131468857Y-103498380D01*
X131564095Y-103546000D01*
X131611714Y-103593619D01*
X131659333Y-103688857D01*
X131659333Y-103831714D01*
X131611714Y-103926952D01*
X131564095Y-103974571D01*
X131468857Y-104022190D01*
X131087904Y-104022190D01*
X132040285Y-103593619D02*
X132087904Y-103546000D01*
X132183142Y-103498380D01*
X132421238Y-103498380D01*
X132516476Y-103546000D01*
X132564095Y-103593619D01*
X132611714Y-103688857D01*
X132611714Y-103784095D01*
X132564095Y-103926952D01*
X131992666Y-104498380D01*
X132611714Y-104498380D01*
%TO.C,R12*%
X151582380Y-111894857D02*
X151106190Y-112228190D01*
X151582380Y-112466285D02*
X150582380Y-112466285D01*
X150582380Y-112085333D01*
X150630000Y-111990095D01*
X150677619Y-111942476D01*
X150772857Y-111894857D01*
X150915714Y-111894857D01*
X151010952Y-111942476D01*
X151058571Y-111990095D01*
X151106190Y-112085333D01*
X151106190Y-112466285D01*
X151582380Y-110942476D02*
X151582380Y-111513904D01*
X151582380Y-111228190D02*
X150582380Y-111228190D01*
X150725238Y-111323428D01*
X150820476Y-111418666D01*
X150868095Y-111513904D01*
X150677619Y-110561523D02*
X150630000Y-110513904D01*
X150582380Y-110418666D01*
X150582380Y-110180571D01*
X150630000Y-110085333D01*
X150677619Y-110037714D01*
X150772857Y-109990095D01*
X150868095Y-109990095D01*
X151010952Y-110037714D01*
X151582380Y-110609142D01*
X151582380Y-109990095D01*
%TO.C,R10*%
X149017142Y-114314380D02*
X148683809Y-113838190D01*
X148445714Y-114314380D02*
X148445714Y-113314380D01*
X148826666Y-113314380D01*
X148921904Y-113362000D01*
X148969523Y-113409619D01*
X149017142Y-113504857D01*
X149017142Y-113647714D01*
X148969523Y-113742952D01*
X148921904Y-113790571D01*
X148826666Y-113838190D01*
X148445714Y-113838190D01*
X149969523Y-114314380D02*
X149398095Y-114314380D01*
X149683809Y-114314380D02*
X149683809Y-113314380D01*
X149588571Y-113457238D01*
X149493333Y-113552476D01*
X149398095Y-113600095D01*
X150588571Y-113314380D02*
X150683809Y-113314380D01*
X150779047Y-113362000D01*
X150826666Y-113409619D01*
X150874285Y-113504857D01*
X150921904Y-113695333D01*
X150921904Y-113933428D01*
X150874285Y-114123904D01*
X150826666Y-114219142D01*
X150779047Y-114266761D01*
X150683809Y-114314380D01*
X150588571Y-114314380D01*
X150493333Y-114266761D01*
X150445714Y-114219142D01*
X150398095Y-114123904D01*
X150350476Y-113933428D01*
X150350476Y-113695333D01*
X150398095Y-113504857D01*
X150445714Y-113409619D01*
X150493333Y-113362000D01*
X150588571Y-113314380D01*
%TO.C,LED_5V0*%
X141105238Y-112670380D02*
X140629047Y-112670380D01*
X140629047Y-111670380D01*
X141438571Y-112146571D02*
X141771904Y-112146571D01*
X141914761Y-112670380D02*
X141438571Y-112670380D01*
X141438571Y-111670380D01*
X141914761Y-111670380D01*
X142343333Y-112670380D02*
X142343333Y-111670380D01*
X142581428Y-111670380D01*
X142724285Y-111718000D01*
X142819523Y-111813238D01*
X142867142Y-111908476D01*
X142914761Y-112098952D01*
X142914761Y-112241809D01*
X142867142Y-112432285D01*
X142819523Y-112527523D01*
X142724285Y-112622761D01*
X142581428Y-112670380D01*
X142343333Y-112670380D01*
X143105238Y-112765619D02*
X143867142Y-112765619D01*
X144581428Y-111670380D02*
X144105238Y-111670380D01*
X144057619Y-112146571D01*
X144105238Y-112098952D01*
X144200476Y-112051333D01*
X144438571Y-112051333D01*
X144533809Y-112098952D01*
X144581428Y-112146571D01*
X144629047Y-112241809D01*
X144629047Y-112479904D01*
X144581428Y-112575142D01*
X144533809Y-112622761D01*
X144438571Y-112670380D01*
X144200476Y-112670380D01*
X144105238Y-112622761D01*
X144057619Y-112575142D01*
X144914761Y-111670380D02*
X145248095Y-112670380D01*
X145581428Y-111670380D01*
X146105238Y-111670380D02*
X146200476Y-111670380D01*
X146295714Y-111718000D01*
X146343333Y-111765619D01*
X146390952Y-111860857D01*
X146438571Y-112051333D01*
X146438571Y-112289428D01*
X146390952Y-112479904D01*
X146343333Y-112575142D01*
X146295714Y-112622761D01*
X146200476Y-112670380D01*
X146105238Y-112670380D01*
X146010000Y-112622761D01*
X145962380Y-112575142D01*
X145914761Y-112479904D01*
X145867142Y-112289428D01*
X145867142Y-112051333D01*
X145914761Y-111860857D01*
X145962380Y-111765619D01*
X146010000Y-111718000D01*
X146105238Y-111670380D01*
%TO.C,C8*%
X168743333Y-104849142D02*
X168695714Y-104896761D01*
X168552857Y-104944380D01*
X168457619Y-104944380D01*
X168314761Y-104896761D01*
X168219523Y-104801523D01*
X168171904Y-104706285D01*
X168124285Y-104515809D01*
X168124285Y-104372952D01*
X168171904Y-104182476D01*
X168219523Y-104087238D01*
X168314761Y-103992000D01*
X168457619Y-103944380D01*
X168552857Y-103944380D01*
X168695714Y-103992000D01*
X168743333Y-104039619D01*
X169314761Y-104372952D02*
X169219523Y-104325333D01*
X169171904Y-104277714D01*
X169124285Y-104182476D01*
X169124285Y-104134857D01*
X169171904Y-104039619D01*
X169219523Y-103992000D01*
X169314761Y-103944380D01*
X169505238Y-103944380D01*
X169600476Y-103992000D01*
X169648095Y-104039619D01*
X169695714Y-104134857D01*
X169695714Y-104182476D01*
X169648095Y-104277714D01*
X169600476Y-104325333D01*
X169505238Y-104372952D01*
X169314761Y-104372952D01*
X169219523Y-104420571D01*
X169171904Y-104468190D01*
X169124285Y-104563428D01*
X169124285Y-104753904D01*
X169171904Y-104849142D01*
X169219523Y-104896761D01*
X169314761Y-104944380D01*
X169505238Y-104944380D01*
X169600476Y-104896761D01*
X169648095Y-104849142D01*
X169695714Y-104753904D01*
X169695714Y-104563428D01*
X169648095Y-104468190D01*
X169600476Y-104420571D01*
X169505238Y-104372952D01*
%TO.C,C6*%
X156297333Y-106021142D02*
X156249714Y-106068761D01*
X156106857Y-106116380D01*
X156011619Y-106116380D01*
X155868761Y-106068761D01*
X155773523Y-105973523D01*
X155725904Y-105878285D01*
X155678285Y-105687809D01*
X155678285Y-105544952D01*
X155725904Y-105354476D01*
X155773523Y-105259238D01*
X155868761Y-105164000D01*
X156011619Y-105116380D01*
X156106857Y-105116380D01*
X156249714Y-105164000D01*
X156297333Y-105211619D01*
X157154476Y-105116380D02*
X156964000Y-105116380D01*
X156868761Y-105164000D01*
X156821142Y-105211619D01*
X156725904Y-105354476D01*
X156678285Y-105544952D01*
X156678285Y-105925904D01*
X156725904Y-106021142D01*
X156773523Y-106068761D01*
X156868761Y-106116380D01*
X157059238Y-106116380D01*
X157154476Y-106068761D01*
X157202095Y-106021142D01*
X157249714Y-105925904D01*
X157249714Y-105687809D01*
X157202095Y-105592571D01*
X157154476Y-105544952D01*
X157059238Y-105497333D01*
X156868761Y-105497333D01*
X156773523Y-105544952D01*
X156725904Y-105592571D01*
X156678285Y-105687809D01*
%TO.C,5V0*%
X166973333Y-120658380D02*
X166497142Y-120658380D01*
X166449523Y-121134571D01*
X166497142Y-121086952D01*
X166592380Y-121039333D01*
X166830476Y-121039333D01*
X166925714Y-121086952D01*
X166973333Y-121134571D01*
X167020952Y-121229809D01*
X167020952Y-121467904D01*
X166973333Y-121563142D01*
X166925714Y-121610761D01*
X166830476Y-121658380D01*
X166592380Y-121658380D01*
X166497142Y-121610761D01*
X166449523Y-121563142D01*
X167306666Y-120658380D02*
X167640000Y-121658380D01*
X167973333Y-120658380D01*
X168497142Y-120658380D02*
X168592380Y-120658380D01*
X168687619Y-120706000D01*
X168735238Y-120753619D01*
X168782857Y-120848857D01*
X168830476Y-121039333D01*
X168830476Y-121277428D01*
X168782857Y-121467904D01*
X168735238Y-121563142D01*
X168687619Y-121610761D01*
X168592380Y-121658380D01*
X168497142Y-121658380D01*
X168401904Y-121610761D01*
X168354285Y-121563142D01*
X168306666Y-121467904D01*
X168259047Y-121277428D01*
X168259047Y-121039333D01*
X168306666Y-120848857D01*
X168354285Y-120753619D01*
X168401904Y-120706000D01*
X168497142Y-120658380D01*
%TO.C,R13*%
X108323142Y-77922380D02*
X107989809Y-77446190D01*
X107751714Y-77922380D02*
X107751714Y-76922380D01*
X108132666Y-76922380D01*
X108227904Y-76970000D01*
X108275523Y-77017619D01*
X108323142Y-77112857D01*
X108323142Y-77255714D01*
X108275523Y-77350952D01*
X108227904Y-77398571D01*
X108132666Y-77446190D01*
X107751714Y-77446190D01*
X109275523Y-77922380D02*
X108704095Y-77922380D01*
X108989809Y-77922380D02*
X108989809Y-76922380D01*
X108894571Y-77065238D01*
X108799333Y-77160476D01*
X108704095Y-77208095D01*
X109608857Y-76922380D02*
X110227904Y-76922380D01*
X109894571Y-77303333D01*
X110037428Y-77303333D01*
X110132666Y-77350952D01*
X110180285Y-77398571D01*
X110227904Y-77493809D01*
X110227904Y-77731904D01*
X110180285Y-77827142D01*
X110132666Y-77874761D01*
X110037428Y-77922380D01*
X109751714Y-77922380D01*
X109656476Y-77874761D01*
X109608857Y-77827142D01*
%TO.C,C11*%
X105021142Y-77827142D02*
X104973523Y-77874761D01*
X104830666Y-77922380D01*
X104735428Y-77922380D01*
X104592571Y-77874761D01*
X104497333Y-77779523D01*
X104449714Y-77684285D01*
X104402095Y-77493809D01*
X104402095Y-77350952D01*
X104449714Y-77160476D01*
X104497333Y-77065238D01*
X104592571Y-76970000D01*
X104735428Y-76922380D01*
X104830666Y-76922380D01*
X104973523Y-76970000D01*
X105021142Y-77017619D01*
X105973523Y-77922380D02*
X105402095Y-77922380D01*
X105687809Y-77922380D02*
X105687809Y-76922380D01*
X105592571Y-77065238D01*
X105497333Y-77160476D01*
X105402095Y-77208095D01*
X106925904Y-77922380D02*
X106354476Y-77922380D01*
X106640190Y-77922380D02*
X106640190Y-76922380D01*
X106544952Y-77065238D01*
X106449714Y-77160476D01*
X106354476Y-77208095D01*
%TO.C,R11*%
X149217142Y-119832380D02*
X148883809Y-119356190D01*
X148645714Y-119832380D02*
X148645714Y-118832380D01*
X149026666Y-118832380D01*
X149121904Y-118880000D01*
X149169523Y-118927619D01*
X149217142Y-119022857D01*
X149217142Y-119165714D01*
X149169523Y-119260952D01*
X149121904Y-119308571D01*
X149026666Y-119356190D01*
X148645714Y-119356190D01*
X150169523Y-119832380D02*
X149598095Y-119832380D01*
X149883809Y-119832380D02*
X149883809Y-118832380D01*
X149788571Y-118975238D01*
X149693333Y-119070476D01*
X149598095Y-119118095D01*
X151121904Y-119832380D02*
X150550476Y-119832380D01*
X150836190Y-119832380D02*
X150836190Y-118832380D01*
X150740952Y-118975238D01*
X150645714Y-119070476D01*
X150550476Y-119118095D01*
%TO.C,FB2*%
X111688666Y-68254571D02*
X111355333Y-68254571D01*
X111355333Y-68778380D02*
X111355333Y-67778380D01*
X111831523Y-67778380D01*
X112545809Y-68254571D02*
X112688666Y-68302190D01*
X112736285Y-68349809D01*
X112783904Y-68445047D01*
X112783904Y-68587904D01*
X112736285Y-68683142D01*
X112688666Y-68730761D01*
X112593428Y-68778380D01*
X112212476Y-68778380D01*
X112212476Y-67778380D01*
X112545809Y-67778380D01*
X112641047Y-67826000D01*
X112688666Y-67873619D01*
X112736285Y-67968857D01*
X112736285Y-68064095D01*
X112688666Y-68159333D01*
X112641047Y-68206952D01*
X112545809Y-68254571D01*
X112212476Y-68254571D01*
X113164857Y-67873619D02*
X113212476Y-67826000D01*
X113307714Y-67778380D01*
X113545809Y-67778380D01*
X113641047Y-67826000D01*
X113688666Y-67873619D01*
X113736285Y-67968857D01*
X113736285Y-68064095D01*
X113688666Y-68206952D01*
X113117238Y-68778380D01*
X113736285Y-68778380D01*
%TO.C,FB1*%
X113720666Y-70794571D02*
X113387333Y-70794571D01*
X113387333Y-71318380D02*
X113387333Y-70318380D01*
X113863523Y-70318380D01*
X114577809Y-70794571D02*
X114720666Y-70842190D01*
X114768285Y-70889809D01*
X114815904Y-70985047D01*
X114815904Y-71127904D01*
X114768285Y-71223142D01*
X114720666Y-71270761D01*
X114625428Y-71318380D01*
X114244476Y-71318380D01*
X114244476Y-70318380D01*
X114577809Y-70318380D01*
X114673047Y-70366000D01*
X114720666Y-70413619D01*
X114768285Y-70508857D01*
X114768285Y-70604095D01*
X114720666Y-70699333D01*
X114673047Y-70746952D01*
X114577809Y-70794571D01*
X114244476Y-70794571D01*
X115768285Y-71318380D02*
X115196857Y-71318380D01*
X115482571Y-71318380D02*
X115482571Y-70318380D01*
X115387333Y-70461238D01*
X115292095Y-70556476D01*
X115196857Y-70604095D01*
%TO.C,C10*%
X110847142Y-64396857D02*
X110894761Y-64444476D01*
X110942380Y-64587333D01*
X110942380Y-64682571D01*
X110894761Y-64825428D01*
X110799523Y-64920666D01*
X110704285Y-64968285D01*
X110513809Y-65015904D01*
X110370952Y-65015904D01*
X110180476Y-64968285D01*
X110085238Y-64920666D01*
X109990000Y-64825428D01*
X109942380Y-64682571D01*
X109942380Y-64587333D01*
X109990000Y-64444476D01*
X110037619Y-64396857D01*
X110942380Y-63444476D02*
X110942380Y-64015904D01*
X110942380Y-63730190D02*
X109942380Y-63730190D01*
X110085238Y-63825428D01*
X110180476Y-63920666D01*
X110228095Y-64015904D01*
X109942380Y-62825428D02*
X109942380Y-62730190D01*
X109990000Y-62634952D01*
X110037619Y-62587333D01*
X110132857Y-62539714D01*
X110323333Y-62492095D01*
X110561428Y-62492095D01*
X110751904Y-62539714D01*
X110847142Y-62587333D01*
X110894761Y-62634952D01*
X110942380Y-62730190D01*
X110942380Y-62825428D01*
X110894761Y-62920666D01*
X110847142Y-62968285D01*
X110751904Y-63015904D01*
X110561428Y-63063523D01*
X110323333Y-63063523D01*
X110132857Y-63015904D01*
X110037619Y-62968285D01*
X109990000Y-62920666D01*
X109942380Y-62825428D01*
%TO.C,C9*%
X115403333Y-73001142D02*
X115355714Y-73048761D01*
X115212857Y-73096380D01*
X115117619Y-73096380D01*
X114974761Y-73048761D01*
X114879523Y-72953523D01*
X114831904Y-72858285D01*
X114784285Y-72667809D01*
X114784285Y-72524952D01*
X114831904Y-72334476D01*
X114879523Y-72239238D01*
X114974761Y-72144000D01*
X115117619Y-72096380D01*
X115212857Y-72096380D01*
X115355714Y-72144000D01*
X115403333Y-72191619D01*
X115879523Y-73096380D02*
X116070000Y-73096380D01*
X116165238Y-73048761D01*
X116212857Y-73001142D01*
X116308095Y-72858285D01*
X116355714Y-72667809D01*
X116355714Y-72286857D01*
X116308095Y-72191619D01*
X116260476Y-72144000D01*
X116165238Y-72096380D01*
X115974761Y-72096380D01*
X115879523Y-72144000D01*
X115831904Y-72191619D01*
X115784285Y-72286857D01*
X115784285Y-72524952D01*
X115831904Y-72620190D01*
X115879523Y-72667809D01*
X115974761Y-72715428D01*
X116165238Y-72715428D01*
X116260476Y-72667809D01*
X116308095Y-72620190D01*
X116355714Y-72524952D01*
%TO.C,DISPLAY1*%
X132929714Y-61005980D02*
X132929714Y-60005980D01*
X133167809Y-60005980D01*
X133310666Y-60053600D01*
X133405904Y-60148838D01*
X133453523Y-60244076D01*
X133501142Y-60434552D01*
X133501142Y-60577409D01*
X133453523Y-60767885D01*
X133405904Y-60863123D01*
X133310666Y-60958361D01*
X133167809Y-61005980D01*
X132929714Y-61005980D01*
X133929714Y-61005980D02*
X133929714Y-60005980D01*
X134358285Y-60958361D02*
X134501142Y-61005980D01*
X134739238Y-61005980D01*
X134834476Y-60958361D01*
X134882095Y-60910742D01*
X134929714Y-60815504D01*
X134929714Y-60720266D01*
X134882095Y-60625028D01*
X134834476Y-60577409D01*
X134739238Y-60529790D01*
X134548761Y-60482171D01*
X134453523Y-60434552D01*
X134405904Y-60386933D01*
X134358285Y-60291695D01*
X134358285Y-60196457D01*
X134405904Y-60101219D01*
X134453523Y-60053600D01*
X134548761Y-60005980D01*
X134786857Y-60005980D01*
X134929714Y-60053600D01*
X135358285Y-61005980D02*
X135358285Y-60005980D01*
X135739238Y-60005980D01*
X135834476Y-60053600D01*
X135882095Y-60101219D01*
X135929714Y-60196457D01*
X135929714Y-60339314D01*
X135882095Y-60434552D01*
X135834476Y-60482171D01*
X135739238Y-60529790D01*
X135358285Y-60529790D01*
X136834476Y-61005980D02*
X136358285Y-61005980D01*
X136358285Y-60005980D01*
X137120190Y-60720266D02*
X137596380Y-60720266D01*
X137024952Y-61005980D02*
X137358285Y-60005980D01*
X137691619Y-61005980D01*
X138215428Y-60529790D02*
X138215428Y-61005980D01*
X137882095Y-60005980D02*
X138215428Y-60529790D01*
X138548761Y-60005980D01*
X139405904Y-61005980D02*
X138834476Y-61005980D01*
X139120190Y-61005980D02*
X139120190Y-60005980D01*
X139024952Y-60148838D01*
X138929714Y-60244076D01*
X138834476Y-60291695D01*
%TO.C,R9*%
X149122333Y-116062380D02*
X148789000Y-115586190D01*
X148550904Y-116062380D02*
X148550904Y-115062380D01*
X148931857Y-115062380D01*
X149027095Y-115110000D01*
X149074714Y-115157619D01*
X149122333Y-115252857D01*
X149122333Y-115395714D01*
X149074714Y-115490952D01*
X149027095Y-115538571D01*
X148931857Y-115586190D01*
X148550904Y-115586190D01*
X149598523Y-116062380D02*
X149789000Y-116062380D01*
X149884238Y-116014761D01*
X149931857Y-115967142D01*
X150027095Y-115824285D01*
X150074714Y-115633809D01*
X150074714Y-115252857D01*
X150027095Y-115157619D01*
X149979476Y-115110000D01*
X149884238Y-115062380D01*
X149693761Y-115062380D01*
X149598523Y-115110000D01*
X149550904Y-115157619D01*
X149503285Y-115252857D01*
X149503285Y-115490952D01*
X149550904Y-115586190D01*
X149598523Y-115633809D01*
X149693761Y-115681428D01*
X149884238Y-115681428D01*
X149979476Y-115633809D01*
X150027095Y-115586190D01*
X150074714Y-115490952D01*
%TO.C,LED_3V3*%
X140851238Y-117546380D02*
X140375047Y-117546380D01*
X140375047Y-116546380D01*
X141184571Y-117022571D02*
X141517904Y-117022571D01*
X141660761Y-117546380D02*
X141184571Y-117546380D01*
X141184571Y-116546380D01*
X141660761Y-116546380D01*
X142089333Y-117546380D02*
X142089333Y-116546380D01*
X142327428Y-116546380D01*
X142470285Y-116594000D01*
X142565523Y-116689238D01*
X142613142Y-116784476D01*
X142660761Y-116974952D01*
X142660761Y-117117809D01*
X142613142Y-117308285D01*
X142565523Y-117403523D01*
X142470285Y-117498761D01*
X142327428Y-117546380D01*
X142089333Y-117546380D01*
X142851238Y-117641619D02*
X143613142Y-117641619D01*
X143756000Y-116546380D02*
X144375047Y-116546380D01*
X144041714Y-116927333D01*
X144184571Y-116927333D01*
X144279809Y-116974952D01*
X144327428Y-117022571D01*
X144375047Y-117117809D01*
X144375047Y-117355904D01*
X144327428Y-117451142D01*
X144279809Y-117498761D01*
X144184571Y-117546380D01*
X143898857Y-117546380D01*
X143803619Y-117498761D01*
X143756000Y-117451142D01*
X144660761Y-116546380D02*
X144994095Y-117546380D01*
X145327428Y-116546380D01*
X145565523Y-116546380D02*
X146184571Y-116546380D01*
X145851238Y-116927333D01*
X145994095Y-116927333D01*
X146089333Y-116974952D01*
X146136952Y-117022571D01*
X146184571Y-117117809D01*
X146184571Y-117355904D01*
X146136952Y-117451142D01*
X146089333Y-117498761D01*
X145994095Y-117546380D01*
X145708380Y-117546380D01*
X145613142Y-117498761D01*
X145565523Y-117451142D01*
%TO.C,R8*%
X100528380Y-70524666D02*
X100052190Y-70858000D01*
X100528380Y-71096095D02*
X99528380Y-71096095D01*
X99528380Y-70715142D01*
X99576000Y-70619904D01*
X99623619Y-70572285D01*
X99718857Y-70524666D01*
X99861714Y-70524666D01*
X99956952Y-70572285D01*
X100004571Y-70619904D01*
X100052190Y-70715142D01*
X100052190Y-71096095D01*
X99956952Y-69953238D02*
X99909333Y-70048476D01*
X99861714Y-70096095D01*
X99766476Y-70143714D01*
X99718857Y-70143714D01*
X99623619Y-70096095D01*
X99576000Y-70048476D01*
X99528380Y-69953238D01*
X99528380Y-69762761D01*
X99576000Y-69667523D01*
X99623619Y-69619904D01*
X99718857Y-69572285D01*
X99766476Y-69572285D01*
X99861714Y-69619904D01*
X99909333Y-69667523D01*
X99956952Y-69762761D01*
X99956952Y-69953238D01*
X100004571Y-70048476D01*
X100052190Y-70096095D01*
X100147428Y-70143714D01*
X100337904Y-70143714D01*
X100433142Y-70096095D01*
X100480761Y-70048476D01*
X100528380Y-69953238D01*
X100528380Y-69762761D01*
X100480761Y-69667523D01*
X100433142Y-69619904D01*
X100337904Y-69572285D01*
X100147428Y-69572285D01*
X100052190Y-69619904D01*
X100004571Y-69667523D01*
X99956952Y-69762761D01*
%TO.C,R7*%
X143597333Y-95448380D02*
X143264000Y-94972190D01*
X143025904Y-95448380D02*
X143025904Y-94448380D01*
X143406857Y-94448380D01*
X143502095Y-94496000D01*
X143549714Y-94543619D01*
X143597333Y-94638857D01*
X143597333Y-94781714D01*
X143549714Y-94876952D01*
X143502095Y-94924571D01*
X143406857Y-94972190D01*
X143025904Y-94972190D01*
X143930666Y-94448380D02*
X144597333Y-94448380D01*
X144168761Y-95448380D01*
%TO.C,R4*%
X138009333Y-108910380D02*
X137676000Y-108434190D01*
X137437904Y-108910380D02*
X137437904Y-107910380D01*
X137818857Y-107910380D01*
X137914095Y-107958000D01*
X137961714Y-108005619D01*
X138009333Y-108100857D01*
X138009333Y-108243714D01*
X137961714Y-108338952D01*
X137914095Y-108386571D01*
X137818857Y-108434190D01*
X137437904Y-108434190D01*
X138866476Y-108243714D02*
X138866476Y-108910380D01*
X138628380Y-107862761D02*
X138390285Y-108577047D01*
X139009333Y-108577047D01*
%TO.C,LED_USR1*%
X142542000Y-99004380D02*
X142065809Y-99004380D01*
X142065809Y-98004380D01*
X142875333Y-98480571D02*
X143208666Y-98480571D01*
X143351523Y-99004380D02*
X142875333Y-99004380D01*
X142875333Y-98004380D01*
X143351523Y-98004380D01*
X143780095Y-99004380D02*
X143780095Y-98004380D01*
X144018190Y-98004380D01*
X144161047Y-98052000D01*
X144256285Y-98147238D01*
X144303904Y-98242476D01*
X144351523Y-98432952D01*
X144351523Y-98575809D01*
X144303904Y-98766285D01*
X144256285Y-98861523D01*
X144161047Y-98956761D01*
X144018190Y-99004380D01*
X143780095Y-99004380D01*
X144542000Y-99099619D02*
X145303904Y-99099619D01*
X145542000Y-98004380D02*
X145542000Y-98813904D01*
X145589619Y-98909142D01*
X145637238Y-98956761D01*
X145732476Y-99004380D01*
X145922952Y-99004380D01*
X146018190Y-98956761D01*
X146065809Y-98909142D01*
X146113428Y-98813904D01*
X146113428Y-98004380D01*
X146542000Y-98956761D02*
X146684857Y-99004380D01*
X146922952Y-99004380D01*
X147018190Y-98956761D01*
X147065809Y-98909142D01*
X147113428Y-98813904D01*
X147113428Y-98718666D01*
X147065809Y-98623428D01*
X147018190Y-98575809D01*
X146922952Y-98528190D01*
X146732476Y-98480571D01*
X146637238Y-98432952D01*
X146589619Y-98385333D01*
X146542000Y-98290095D01*
X146542000Y-98194857D01*
X146589619Y-98099619D01*
X146637238Y-98052000D01*
X146732476Y-98004380D01*
X146970571Y-98004380D01*
X147113428Y-98052000D01*
X148113428Y-99004380D02*
X147780095Y-98528190D01*
X147542000Y-99004380D02*
X147542000Y-98004380D01*
X147922952Y-98004380D01*
X148018190Y-98052000D01*
X148065809Y-98099619D01*
X148113428Y-98194857D01*
X148113428Y-98337714D01*
X148065809Y-98432952D01*
X148018190Y-98480571D01*
X147922952Y-98528190D01*
X147542000Y-98528190D01*
X149065809Y-99004380D02*
X148494380Y-99004380D01*
X148780095Y-99004380D02*
X148780095Y-98004380D01*
X148684857Y-98147238D01*
X148589619Y-98242476D01*
X148494380Y-98290095D01*
%TO.C,C4*%
X170013333Y-101703142D02*
X169965714Y-101750761D01*
X169822857Y-101798380D01*
X169727619Y-101798380D01*
X169584761Y-101750761D01*
X169489523Y-101655523D01*
X169441904Y-101560285D01*
X169394285Y-101369809D01*
X169394285Y-101226952D01*
X169441904Y-101036476D01*
X169489523Y-100941238D01*
X169584761Y-100846000D01*
X169727619Y-100798380D01*
X169822857Y-100798380D01*
X169965714Y-100846000D01*
X170013333Y-100893619D01*
X170870476Y-101131714D02*
X170870476Y-101798380D01*
X170632380Y-100750761D02*
X170394285Y-101465047D01*
X171013333Y-101465047D01*
%TO.C,C3*%
X128373142Y-91098666D02*
X128420761Y-91146285D01*
X128468380Y-91289142D01*
X128468380Y-91384380D01*
X128420761Y-91527238D01*
X128325523Y-91622476D01*
X128230285Y-91670095D01*
X128039809Y-91717714D01*
X127896952Y-91717714D01*
X127706476Y-91670095D01*
X127611238Y-91622476D01*
X127516000Y-91527238D01*
X127468380Y-91384380D01*
X127468380Y-91289142D01*
X127516000Y-91146285D01*
X127563619Y-91098666D01*
X127468380Y-90765333D02*
X127468380Y-90146285D01*
X127849333Y-90479619D01*
X127849333Y-90336761D01*
X127896952Y-90241523D01*
X127944571Y-90193904D01*
X128039809Y-90146285D01*
X128277904Y-90146285D01*
X128373142Y-90193904D01*
X128420761Y-90241523D01*
X128468380Y-90336761D01*
X128468380Y-90622476D01*
X128420761Y-90717714D01*
X128373142Y-90765333D01*
%TO.C,C2*%
X106783142Y-73572666D02*
X106830761Y-73620285D01*
X106878380Y-73763142D01*
X106878380Y-73858380D01*
X106830761Y-74001238D01*
X106735523Y-74096476D01*
X106640285Y-74144095D01*
X106449809Y-74191714D01*
X106306952Y-74191714D01*
X106116476Y-74144095D01*
X106021238Y-74096476D01*
X105926000Y-74001238D01*
X105878380Y-73858380D01*
X105878380Y-73763142D01*
X105926000Y-73620285D01*
X105973619Y-73572666D01*
X105973619Y-73191714D02*
X105926000Y-73144095D01*
X105878380Y-73048857D01*
X105878380Y-72810761D01*
X105926000Y-72715523D01*
X105973619Y-72667904D01*
X106068857Y-72620285D01*
X106164095Y-72620285D01*
X106306952Y-72667904D01*
X106878380Y-73239333D01*
X106878380Y-72620285D01*
%TO.C,C1*%
X102211142Y-73572666D02*
X102258761Y-73620285D01*
X102306380Y-73763142D01*
X102306380Y-73858380D01*
X102258761Y-74001238D01*
X102163523Y-74096476D01*
X102068285Y-74144095D01*
X101877809Y-74191714D01*
X101734952Y-74191714D01*
X101544476Y-74144095D01*
X101449238Y-74096476D01*
X101354000Y-74001238D01*
X101306380Y-73858380D01*
X101306380Y-73763142D01*
X101354000Y-73620285D01*
X101401619Y-73572666D01*
X102306380Y-72620285D02*
X102306380Y-73191714D01*
X102306380Y-72906000D02*
X101306380Y-72906000D01*
X101449238Y-73001238D01*
X101544476Y-73096476D01*
X101592095Y-73191714D01*
%TO.C,C7*%
X154214533Y-119635542D02*
X154166914Y-119683161D01*
X154024057Y-119730780D01*
X153928819Y-119730780D01*
X153785961Y-119683161D01*
X153690723Y-119587923D01*
X153643104Y-119492685D01*
X153595485Y-119302209D01*
X153595485Y-119159352D01*
X153643104Y-118968876D01*
X153690723Y-118873638D01*
X153785961Y-118778400D01*
X153928819Y-118730780D01*
X154024057Y-118730780D01*
X154166914Y-118778400D01*
X154214533Y-118826019D01*
X154547866Y-118730780D02*
X155214533Y-118730780D01*
X154785961Y-119730780D01*
%TO.C,C5*%
X164171333Y-106021142D02*
X164123714Y-106068761D01*
X163980857Y-106116380D01*
X163885619Y-106116380D01*
X163742761Y-106068761D01*
X163647523Y-105973523D01*
X163599904Y-105878285D01*
X163552285Y-105687809D01*
X163552285Y-105544952D01*
X163599904Y-105354476D01*
X163647523Y-105259238D01*
X163742761Y-105164000D01*
X163885619Y-105116380D01*
X163980857Y-105116380D01*
X164123714Y-105164000D01*
X164171333Y-105211619D01*
X165076095Y-105116380D02*
X164599904Y-105116380D01*
X164552285Y-105592571D01*
X164599904Y-105544952D01*
X164695142Y-105497333D01*
X164933238Y-105497333D01*
X165028476Y-105544952D01*
X165076095Y-105592571D01*
X165123714Y-105687809D01*
X165123714Y-105925904D01*
X165076095Y-106021142D01*
X165028476Y-106068761D01*
X164933238Y-106116380D01*
X164695142Y-106116380D01*
X164599904Y-106068761D01*
X164552285Y-106021142D01*
%TO.C,WIRE_SINK1*%
X158599714Y-91146380D02*
X158837809Y-92146380D01*
X159028285Y-91432095D01*
X159218761Y-92146380D01*
X159456857Y-91146380D01*
X159837809Y-92146380D02*
X159837809Y-91146380D01*
X160885428Y-92146380D02*
X160552095Y-91670190D01*
X160314000Y-92146380D02*
X160314000Y-91146380D01*
X160694952Y-91146380D01*
X160790190Y-91194000D01*
X160837809Y-91241619D01*
X160885428Y-91336857D01*
X160885428Y-91479714D01*
X160837809Y-91574952D01*
X160790190Y-91622571D01*
X160694952Y-91670190D01*
X160314000Y-91670190D01*
X161314000Y-91622571D02*
X161647333Y-91622571D01*
X161790190Y-92146380D02*
X161314000Y-92146380D01*
X161314000Y-91146380D01*
X161790190Y-91146380D01*
X161980666Y-92241619D02*
X162742571Y-92241619D01*
X162933047Y-92098761D02*
X163075904Y-92146380D01*
X163314000Y-92146380D01*
X163409238Y-92098761D01*
X163456857Y-92051142D01*
X163504476Y-91955904D01*
X163504476Y-91860666D01*
X163456857Y-91765428D01*
X163409238Y-91717809D01*
X163314000Y-91670190D01*
X163123523Y-91622571D01*
X163028285Y-91574952D01*
X162980666Y-91527333D01*
X162933047Y-91432095D01*
X162933047Y-91336857D01*
X162980666Y-91241619D01*
X163028285Y-91194000D01*
X163123523Y-91146380D01*
X163361619Y-91146380D01*
X163504476Y-91194000D01*
X163933047Y-92146380D02*
X163933047Y-91146380D01*
X164409238Y-92146380D02*
X164409238Y-91146380D01*
X164980666Y-92146380D01*
X164980666Y-91146380D01*
X165456857Y-92146380D02*
X165456857Y-91146380D01*
X166028285Y-92146380D02*
X165599714Y-91574952D01*
X166028285Y-91146380D02*
X165456857Y-91717809D01*
X166980666Y-92146380D02*
X166409238Y-92146380D01*
X166694952Y-92146380D02*
X166694952Y-91146380D01*
X166599714Y-91289238D01*
X166504476Y-91384476D01*
X166409238Y-91432095D01*
%TO.C,WIRE_SRC1*%
X104505619Y-91908380D02*
X104743714Y-92908380D01*
X104934190Y-92194095D01*
X105124666Y-92908380D01*
X105362761Y-91908380D01*
X105743714Y-92908380D02*
X105743714Y-91908380D01*
X106791333Y-92908380D02*
X106458000Y-92432190D01*
X106219904Y-92908380D02*
X106219904Y-91908380D01*
X106600857Y-91908380D01*
X106696095Y-91956000D01*
X106743714Y-92003619D01*
X106791333Y-92098857D01*
X106791333Y-92241714D01*
X106743714Y-92336952D01*
X106696095Y-92384571D01*
X106600857Y-92432190D01*
X106219904Y-92432190D01*
X107219904Y-92384571D02*
X107553238Y-92384571D01*
X107696095Y-92908380D02*
X107219904Y-92908380D01*
X107219904Y-91908380D01*
X107696095Y-91908380D01*
X107886571Y-93003619D02*
X108648476Y-93003619D01*
X108838952Y-92860761D02*
X108981809Y-92908380D01*
X109219904Y-92908380D01*
X109315142Y-92860761D01*
X109362761Y-92813142D01*
X109410380Y-92717904D01*
X109410380Y-92622666D01*
X109362761Y-92527428D01*
X109315142Y-92479809D01*
X109219904Y-92432190D01*
X109029428Y-92384571D01*
X108934190Y-92336952D01*
X108886571Y-92289333D01*
X108838952Y-92194095D01*
X108838952Y-92098857D01*
X108886571Y-92003619D01*
X108934190Y-91956000D01*
X109029428Y-91908380D01*
X109267523Y-91908380D01*
X109410380Y-91956000D01*
X110410380Y-92908380D02*
X110077047Y-92432190D01*
X109838952Y-92908380D02*
X109838952Y-91908380D01*
X110219904Y-91908380D01*
X110315142Y-91956000D01*
X110362761Y-92003619D01*
X110410380Y-92098857D01*
X110410380Y-92241714D01*
X110362761Y-92336952D01*
X110315142Y-92384571D01*
X110219904Y-92432190D01*
X109838952Y-92432190D01*
X111410380Y-92813142D02*
X111362761Y-92860761D01*
X111219904Y-92908380D01*
X111124666Y-92908380D01*
X110981809Y-92860761D01*
X110886571Y-92765523D01*
X110838952Y-92670285D01*
X110791333Y-92479809D01*
X110791333Y-92336952D01*
X110838952Y-92146476D01*
X110886571Y-92051238D01*
X110981809Y-91956000D01*
X111124666Y-91908380D01*
X111219904Y-91908380D01*
X111362761Y-91956000D01*
X111410380Y-92003619D01*
X112362761Y-92908380D02*
X111791333Y-92908380D01*
X112077047Y-92908380D02*
X112077047Y-91908380D01*
X111981809Y-92051238D01*
X111886571Y-92146476D01*
X111791333Y-92194095D01*
%TO.C,PIR1*%
X132635809Y-111196380D02*
X132635809Y-110196380D01*
X133016761Y-110196380D01*
X133112000Y-110244000D01*
X133159619Y-110291619D01*
X133207238Y-110386857D01*
X133207238Y-110529714D01*
X133159619Y-110624952D01*
X133112000Y-110672571D01*
X133016761Y-110720190D01*
X132635809Y-110720190D01*
X133635809Y-111196380D02*
X133635809Y-110196380D01*
X134683428Y-111196380D02*
X134350095Y-110720190D01*
X134112000Y-111196380D02*
X134112000Y-110196380D01*
X134492952Y-110196380D01*
X134588190Y-110244000D01*
X134635809Y-110291619D01*
X134683428Y-110386857D01*
X134683428Y-110529714D01*
X134635809Y-110624952D01*
X134588190Y-110672571D01*
X134492952Y-110720190D01*
X134112000Y-110720190D01*
X135635809Y-111196380D02*
X135064380Y-111196380D01*
X135350095Y-111196380D02*
X135350095Y-110196380D01*
X135254857Y-110339238D01*
X135159619Y-110434476D01*
X135064380Y-110482095D01*
X133096000Y-114768380D02*
X133096000Y-115006476D01*
X132857904Y-114911238D02*
X133096000Y-115006476D01*
X133334095Y-114911238D01*
X132953142Y-115196952D02*
X133096000Y-115006476D01*
X133238857Y-115196952D01*
%TO.C,U3*%
X134874095Y-102068380D02*
X134874095Y-102877904D01*
X134921714Y-102973142D01*
X134969333Y-103020761D01*
X135064571Y-103068380D01*
X135255047Y-103068380D01*
X135350285Y-103020761D01*
X135397904Y-102973142D01*
X135445523Y-102877904D01*
X135445523Y-102068380D01*
X135826476Y-102068380D02*
X136445523Y-102068380D01*
X136112190Y-102449333D01*
X136255047Y-102449333D01*
X136350285Y-102496952D01*
X136397904Y-102544571D01*
X136445523Y-102639809D01*
X136445523Y-102877904D01*
X136397904Y-102973142D01*
X136350285Y-103020761D01*
X136255047Y-103068380D01*
X135969333Y-103068380D01*
X135874095Y-103020761D01*
X135826476Y-102973142D01*
%TO.C,ON1*%
X171177129Y-96510564D02*
X171357106Y-96510564D01*
X171447095Y-96555559D01*
X171537084Y-96645547D01*
X171582078Y-96825525D01*
X171582078Y-97140485D01*
X171537084Y-97320463D01*
X171447095Y-97410452D01*
X171357106Y-97455446D01*
X171177129Y-97455446D01*
X171087140Y-97410452D01*
X170997151Y-97320463D01*
X170952157Y-97140485D01*
X170952157Y-96825525D01*
X170997151Y-96645547D01*
X171087140Y-96555559D01*
X171177129Y-96510564D01*
X171987028Y-97455446D02*
X171987028Y-96510564D01*
X172526960Y-97455446D01*
X172526960Y-96510564D01*
X173471842Y-97455446D02*
X172931910Y-97455446D01*
X173201876Y-97455446D02*
X173201876Y-96510564D01*
X173111887Y-96645547D01*
X173021898Y-96735536D01*
X172931910Y-96780530D01*
X171312112Y-87366564D02*
X171492089Y-87366564D01*
X171582078Y-87411559D01*
X171672067Y-87501547D01*
X171717061Y-87681525D01*
X171717061Y-87996485D01*
X171672067Y-88176463D01*
X171582078Y-88266452D01*
X171492089Y-88311446D01*
X171312112Y-88311446D01*
X171222123Y-88266452D01*
X171132134Y-88176463D01*
X171087140Y-87996485D01*
X171087140Y-87681525D01*
X171132134Y-87501547D01*
X171222123Y-87411559D01*
X171312112Y-87366564D01*
X172436971Y-87816508D02*
X172122011Y-87816508D01*
X172122011Y-88311446D02*
X172122011Y-87366564D01*
X172571955Y-87366564D01*
X173246870Y-87816508D02*
X172931910Y-87816508D01*
X172931910Y-88311446D02*
X172931910Y-87366564D01*
X173381853Y-87366564D01*
%TO.C,J2*%
X107870666Y-64476380D02*
X107870666Y-65190666D01*
X107823047Y-65333523D01*
X107727809Y-65428761D01*
X107584952Y-65476380D01*
X107489714Y-65476380D01*
X108299238Y-64571619D02*
X108346857Y-64524000D01*
X108442095Y-64476380D01*
X108680190Y-64476380D01*
X108775428Y-64524000D01*
X108823047Y-64571619D01*
X108870666Y-64666857D01*
X108870666Y-64762095D01*
X108823047Y-64904952D01*
X108251619Y-65476380D01*
X108870666Y-65476380D01*
%TO.C,RST_BTN1*%
X163520380Y-82565523D02*
X163044190Y-82898857D01*
X163520380Y-83136952D02*
X162520380Y-83136952D01*
X162520380Y-82756000D01*
X162568000Y-82660761D01*
X162615619Y-82613142D01*
X162710857Y-82565523D01*
X162853714Y-82565523D01*
X162948952Y-82613142D01*
X162996571Y-82660761D01*
X163044190Y-82756000D01*
X163044190Y-83136952D01*
X163472761Y-82184571D02*
X163520380Y-82041714D01*
X163520380Y-81803619D01*
X163472761Y-81708380D01*
X163425142Y-81660761D01*
X163329904Y-81613142D01*
X163234666Y-81613142D01*
X163139428Y-81660761D01*
X163091809Y-81708380D01*
X163044190Y-81803619D01*
X162996571Y-81994095D01*
X162948952Y-82089333D01*
X162901333Y-82136952D01*
X162806095Y-82184571D01*
X162710857Y-82184571D01*
X162615619Y-82136952D01*
X162568000Y-82089333D01*
X162520380Y-81994095D01*
X162520380Y-81756000D01*
X162568000Y-81613142D01*
X162520380Y-81327428D02*
X162520380Y-80756000D01*
X163520380Y-81041714D02*
X162520380Y-81041714D01*
X163615619Y-80660761D02*
X163615619Y-79898857D01*
X162996571Y-79327428D02*
X163044190Y-79184571D01*
X163091809Y-79136952D01*
X163187047Y-79089333D01*
X163329904Y-79089333D01*
X163425142Y-79136952D01*
X163472761Y-79184571D01*
X163520380Y-79279809D01*
X163520380Y-79660761D01*
X162520380Y-79660761D01*
X162520380Y-79327428D01*
X162568000Y-79232190D01*
X162615619Y-79184571D01*
X162710857Y-79136952D01*
X162806095Y-79136952D01*
X162901333Y-79184571D01*
X162948952Y-79232190D01*
X162996571Y-79327428D01*
X162996571Y-79660761D01*
X162520380Y-78803619D02*
X162520380Y-78232190D01*
X163520380Y-78517904D02*
X162520380Y-78517904D01*
X163520380Y-77898857D02*
X162520380Y-77898857D01*
X163520380Y-77327428D01*
X162520380Y-77327428D01*
X163520380Y-76327428D02*
X163520380Y-76898857D01*
X163520380Y-76613142D02*
X162520380Y-76613142D01*
X162663238Y-76708380D01*
X162758476Y-76803619D01*
X162806095Y-76898857D01*
%TO.C,3V3*%
X158272904Y-120575380D02*
X158891952Y-120575380D01*
X158558619Y-120956333D01*
X158701476Y-120956333D01*
X158796714Y-121003952D01*
X158844333Y-121051571D01*
X158891952Y-121146809D01*
X158891952Y-121384904D01*
X158844333Y-121480142D01*
X158796714Y-121527761D01*
X158701476Y-121575380D01*
X158415761Y-121575380D01*
X158320523Y-121527761D01*
X158272904Y-121480142D01*
X159177666Y-120575380D02*
X159511000Y-121575380D01*
X159844333Y-120575380D01*
X160082428Y-120575380D02*
X160701476Y-120575380D01*
X160368142Y-120956333D01*
X160511000Y-120956333D01*
X160606238Y-121003952D01*
X160653857Y-121051571D01*
X160701476Y-121146809D01*
X160701476Y-121384904D01*
X160653857Y-121480142D01*
X160606238Y-121527761D01*
X160511000Y-121575380D01*
X160225285Y-121575380D01*
X160130047Y-121527761D01*
X160082428Y-121480142D01*
%TD*%
M02*
