M48
INCH,TZ
T1C0.0157
T2C0.0280
T3C0.0320
T4C0.0394
T5C0.0400
%
G90
G05
T1
X41300Y-29500
X43060Y-26840
X44100Y-24400
X44805Y-28995
X49700Y-46500
X50400Y-33900
X55600Y-45500
X56100Y-41900
X56250Y-35150
X58200Y-37610
X60100Y-40600
X60600Y-42300
X60800Y-45000
X63054Y-43346
X63800Y-42300
X66191Y-31409
X66897Y-42503
X67500Y-41800
X67600Y-39900
T2
X52400Y-45400
X52400Y-46400
X53400Y-45400
X53400Y-46400
T3
X40300Y-32900
X41300Y-31900
X41300Y-33900
T4
X41600Y-24600
X41700Y-37300
X41700Y-38300
X41700Y-39300
X41700Y-40300
X42600Y-24600
X52100Y-25000
X53100Y-25000
X54100Y-25000
X55100Y-25000
X65000Y-37300
X65000Y-38300
X65000Y-39300
X65000Y-40300
T5
X63421Y-33100
X63421Y-38100
T0
M30
